<svg width="16" height="16" viewBox="0 0 16 16" fill="none" xmlns="http://www.w3.org/2000/svg">
<g clip-path="url(#clip0_612_7376)">
<path d="M11.6652 12.3234L13.7522 6.06247C14.5845 3.56581 15.0006 2.31747 14.3416 1.65852C13.6826 0.999575 12.4343 1.41569 9.9375 2.24791L3.71668 4.32143C2.32879 4.78404 1.63485 5.01535 1.42422 5.52423C1.37471 5.64383 1.34478 5.77062 1.33557 5.89973C1.29638 6.44908 1.81361 6.9663 2.84808 8.00072L3.0365 8.18913C3.2063 8.35893 3.2912 8.44382 3.35538 8.53833C3.48196 8.72471 3.5538 8.94282 3.56278 9.16794C3.56734 9.28208 3.54951 9.40081 3.51387 9.63828C3.38341 10.5075 3.31818 10.942 3.39503 11.2765C3.5482 11.943 4.06415 12.4663 4.72854 12.6288C5.06186 12.7104 5.49734 12.6513 6.3683 12.5331L6.41592 12.5266C6.66144 12.4933 6.7842 12.4766 6.90207 12.4838C7.11605 12.4967 7.32272 12.5664 7.50081 12.6857C7.59891 12.7514 7.68652 12.839 7.86172 13.0142L8.02922 13.1817C9.03608 14.1885 9.5395 14.6919 10.0736 14.6657C10.2208 14.6584 10.3654 14.6243 10.5003 14.5649C10.9897 14.3496 11.2149 13.6742 11.6652 12.3234Z" stroke="white" stroke-width="1.5"/>
<path d="M4 12L14 2" stroke="white" stroke-width="1.5" stroke-linecap="round"/>
</g>
<defs>
<clipPath id="clip0_612_7376">
<rect width="16" height="16" fill="white"/>
</clipPath>
</defs>
</svg>
