<svg width="24" height="24" viewBox="0 0 24 24" fill="none" xmlns="http://www.w3.org/2000/svg">
<path d="M12.0206 2.91016C8.71058 2.91016 6.02058 5.60016 6.02058 8.91016V11.8002C6.02058 12.4102 5.76058 13.3402 5.45058 13.8602L4.30058 15.7702C3.59058 16.9502 4.08058 18.2602 5.38058 18.7002C9.69058 20.1402 14.3406 20.1402 18.6506 18.7002C19.8606 18.3002 20.3906 16.8702 19.7306 15.7702L18.5806 13.8602C18.2806 13.3402 18.0206 12.4102 18.0206 11.8002V8.91016C18.0206 5.61016 15.3206 2.91016 12.0206 2.91016Z" stroke="#696869" stroke-width="1.5"/>
<path d="M13.87 3.2C13.58 2.46 12.86 1.94 12.02 1.94C11.18 1.94 10.46 2.46 10.17 3.2" stroke="#696869" stroke-width="1.5"/>
<path d="M15 19.5C15 21.15 13.6695 22.0601 12.0195 22.0601C10.6974 22.0601 9 20.9431 9 19.5" stroke="#696869" stroke-width="1.5"/>
</svg>
