<svg width="24" height="24" viewBox="0 0 24 24" fill="none" xmlns="http://www.w3.org/2000/svg">
<rect width="24" height="24" rx="12" fill="black"/>
<path d="M11.93 5.14285L8.28902 7.24348L9.62765 8.01952L11.93 6.69491L14.2324 8.01952L15.571 7.24348L11.93 5.14285ZM14.2324 9.11667L15.571 9.89269V11.4447L13.2686 12.7693V15.4186L11.93 16.1946L10.5914 15.4186V12.7693L8.28902 11.4447V9.89269L9.62765 9.11667L11.93 10.4412L14.2324 9.11667ZM15.571 12.5419V14.094L14.2324 14.87V13.3179L15.571 12.5419ZM14.219 15.9671L16.5215 14.6425V11.9933L17.86 11.2173V15.4186L14.219 17.5192V15.9671ZM16.5215 9.34412L15.1828 8.56809L16.5215 7.79206L17.86 8.56809V10.1201L16.5215 10.8962V9.34412ZM10.5914 18.0811V16.5291L11.93 17.3051L13.2686 16.5291V18.0811L11.93 18.8571L10.5914 18.0811ZM9.62765 14.87L8.28902 14.094V12.5419L9.62765 13.3179V14.87ZM11.93 9.34412L10.5914 8.56809L11.93 7.79206L13.2686 8.56809L11.93 9.34412ZM8.67721 8.56809L7.3386 9.34412V10.8962L6 10.1201V8.56809L7.3386 7.79206L8.67721 8.56809ZM6 11.2173L7.3386 11.9933V14.6425L9.641 15.9671V17.5192L6 15.4186V11.2173Z" fill="#F0B90B"/>
</svg>
