<svg width="32" height="32" viewBox="0 0 32 32" fill="none" xmlns="http://www.w3.org/2000/svg">
<circle cx="16" cy="16" r="16" fill="#F7931A"/>
<path d="M21.9635 14.04C22.2544 11.9386 20.7718 10.8089 18.7446 10.0553L19.4022 7.20864L17.7962 6.7768L17.156 9.54843C16.7343 9.43492 16.3008 9.32782 15.8701 9.22171L16.5148 6.43183L14.9102 6L14.2521 8.84565C13.9028 8.75978 13.5598 8.67489 13.2269 8.58556L13.2287 8.57668L11.0145 7.98001L10.5874 9.83072C10.5874 9.83072 11.7786 10.1254 11.7535 10.1436C12.4038 10.3188 12.5217 10.7832 12.5016 11.1514L11.7526 14.3943C11.7974 14.4067 11.8555 14.4244 11.9195 14.4521L11.7503 14.4067L10.6999 18.9495C10.6203 19.1627 10.4186 19.4825 9.96408 19.3611C9.98009 19.3863 8.79707 19.0468 8.79707 19.0468L8 21.0307L10.0898 21.5928C10.4785 21.698 10.8595 21.808 11.234 21.9117L10.5695 24.7914L12.1733 25.2232L12.8318 22.3746C13.2694 22.5029 13.6947 22.6213 14.1108 22.7329L13.4551 25.5682L15.0606 26L15.7251 23.1262C18.4629 23.6854 20.5221 23.4598 21.3878 20.7879C22.0861 18.6361 21.3535 17.3949 19.913 16.5851C20.962 16.323 21.7522 15.5783 21.9631 14.04H21.9635ZM18.2946 19.5916C17.798 21.7434 14.4415 20.5806 13.3526 20.2885L14.2343 16.474C15.3227 16.7672 18.8123 17.3476 18.2951 19.5916H18.2946ZM18.7908 14.0089C18.3381 15.9662 15.544 14.9717 14.6372 14.7279L15.4365 11.2684C16.3434 11.5122 19.2627 11.9672 18.7908 14.0089Z" fill="white"/>
</svg>
