<svg width="15" height="12" viewBox="0 0 15 12" fill="none" xmlns="http://www.w3.org/2000/svg">
<path fill-rule="evenodd" clip-rule="evenodd" d="M13.0673 3.33569C13.0295 3.3333 12.9884 3.33332 12.9457 3.33334L12.9351 3.33334H11.2627C9.8843 3.33334 8.70482 4.41838 8.70482 5.83334C8.70482 7.2483 9.8843 8.33334 11.2627 8.33334H12.9351L12.9457 8.33334C12.9884 8.33336 13.0295 8.33337 13.0673 8.33099C13.6272 8.29563 14.1224 7.85747 14.164 7.24548C14.1667 7.20535 14.1667 7.16209 14.1667 7.122L14.1667 7.11112V4.55556L14.1667 4.54468C14.1667 4.50459 14.1667 4.46133 14.164 4.4212C14.1224 3.8092 13.6272 3.37105 13.0673 3.33569ZM11.1145 6.5C11.4693 6.5 11.757 6.20152 11.757 5.83333C11.757 5.46514 11.4693 5.16667 11.1145 5.16667C10.7596 5.16667 10.4719 5.46514 10.4719 5.83333C10.4719 6.20152 10.7596 6.5 11.1145 6.5Z" fill="#070808"/>
<path fill-rule="evenodd" clip-rule="evenodd" d="M12.9453 9.33334C13.0447 9.33076 13.1199 9.42283 13.0929 9.51853C12.9591 9.9935 12.7467 10.3983 12.4058 10.7392C11.9069 11.2381 11.2743 11.4595 10.4927 11.5646C9.73322 11.6667 8.76279 11.6667 7.53762 11.6667H6.12907C4.9039 11.6667 3.93347 11.6667 3.174 11.5646C2.39238 11.4595 1.75975 11.2381 1.26084 10.7392C0.761931 10.2403 0.540519 9.60763 0.435434 8.82602C0.333325 8.06654 0.333333 7.09612 0.333344 5.87094V5.79572C0.333333 4.57055 0.333325 3.60013 0.435434 2.84065C0.540519 2.05904 0.76193 1.4264 1.26084 0.927496C1.75975 0.428587 2.39238 0.207176 3.174 0.10209C3.93347 -1.8537e-05 4.90389 -1.01953e-05 6.12906 2.95093e-07L7.53762 2.15621e-07C8.7628 -1.0394e-05 9.73322 -1.88549e-05 10.4927 0.10209C11.2743 0.207175 11.9069 0.428587 12.4058 0.927495C12.7467 1.26835 12.9591 1.67316 13.0929 2.14812C13.1199 2.24384 13.0447 2.33591 12.9453 2.33334L11.2627 2.33334C9.37159 2.33334 7.70476 3.82727 7.70476 5.83334C7.70476 7.8394 9.37159 9.33334 11.2627 9.33334L12.9453 9.33334ZM3.66668 8.33333C3.39053 8.33333 3.16668 8.10948 3.16668 7.83333V3.83333C3.16668 3.55719 3.39053 3.33333 3.66668 3.33333C3.94282 3.33333 4.16668 3.55719 4.16668 3.83333V7.83333C4.16668 8.10948 3.94282 8.33333 3.66668 8.33333Z" fill="#070808"/>
</svg>
