<svg width="16" height="16" viewBox="0 0 16 16" fill="none" xmlns="http://www.w3.org/2000/svg">
<path d="M1.63966 11.8451H1.63528C1.42279 11.7303 1.22266 11.594 1.03809 11.4382V12.7582C1.09457 13.1241 1.31868 13.4426 1.64392 13.6194L1.63089 11.8927C1.63089 11.8754 1.63966 11.8623 1.63966 11.8451Z" fill="white"/>
<path d="M3.36219 12.5247C3.01123 12.4268 2.66604 12.3098 2.32788 12.1742L2.33653 14.0135V14.0134C2.67415 14.165 3.02108 14.2951 3.37513 14.4029L3.36648 12.5247L3.36219 12.5247Z" fill="white"/>
<path d="M5.52554 12.9484C5.01923 12.8835 4.52581 12.7969 4.05845 12.6931L4.0671 14.4848C4.06557 14.5185 4.05977 14.552 4.0498 14.5843C4.50424 14.6882 5.00618 14.7791 5.53855 14.8484L5.5299 12.9484L5.52554 12.9484Z" fill="white"/>
<path d="M6.23145 14.9178V14.922C6.6988 14.9653 7.19219 14.9912 7.7029 15V13.1002C7.20523 13.0915 6.71183 13.0656 6.2229 13.0222L6.23145 14.9178Z" fill="white"/>
<path d="M8.39502 14.9999C8.90999 14.9912 9.39901 14.9653 9.86647 14.9219V13.0265C9.38183 13.0655 8.88844 13.0914 8.39502 13.1001V14.9999Z" fill="white"/>
<path d="M14.4451 11.8537C14.45 11.8662 14.453 11.8793 14.4537 11.8927V13.6194C14.7799 13.4435 15.0043 13.1245 15.0597 12.7582V11.4382C14.8696 11.5954 14.6653 11.7346 14.4495 11.8537L14.4451 11.8537Z" fill="white"/>
<path d="M12.7227 14.4026C13.0779 14.2982 13.4249 14.168 13.7613 14.0131V12.1782C13.4218 12.3139 13.075 12.4309 12.7227 12.5288V14.4026Z" fill="white"/>
<path d="M12.03 12.6976C11.5627 12.8015 11.0693 12.8837 10.5586 12.9487V14.8485C11.0952 14.7792 11.5972 14.6883 12.0516 14.5844H12.0517C12.0409 14.5537 12.0335 14.5217 12.03 14.4892L12.03 12.6976Z" fill="white"/>
<path d="M11.9695 10.4948H11.8309C10.0307 10.4099 8.25625 10.0328 6.57724 9.37824C5.75312 9.07391 4.94934 8.71678 4.1711 8.3092C2.22366 8.74195 1.03784 9.47762 1.03784 10.1614C1.03784 11.2261 3.91579 12.4118 8.04872 12.4118C12.1817 12.4118 15.0596 11.2261 15.0596 10.1614V10.1615C15.0404 9.90711 14.9166 9.67206 14.7177 9.51234C14.3368 10.1485 13.3718 10.4948 11.9697 10.4948L11.9695 10.4948Z" fill="white"/>
<path d="M14.1724 9.05373L14.3974 8.43924L14.6354 7.80309V7.80298C14.4027 7.88695 14.162 7.94639 13.917 7.98044L13.9041 8.03233L13.8478 8.17946L13.6054 8.83291L13.3025 9.65081V9.65092C13.6507 9.59705 13.9592 9.39704 14.1507 9.10136C14.1597 9.08636 14.167 9.07037 14.1724 9.05373Z" fill="white"/>
<path d="M12.5149 9.78075L12.9563 8.59064L13.1553 8.05401C13.0601 8.05828 12.9649 8.05828 12.8697 8.05828H12.7356C12.5192 8.05401 12.2942 8.04525 12.0605 8.02368L11.9523 8.31369L11.4114 9.78077C11.5585 9.7938 11.7014 9.80245 11.8441 9.80245L11.844 9.80234C12.0679 9.8065 12.2918 9.79925 12.5149 9.78075Z" fill="white"/>
<path d="M11.2688 8.17514L11.351 7.95017C10.8792 7.88525 10.3902 7.79001 9.88829 7.66882L9.77148 7.98476L9.22618 9.45184L9.22607 9.45173C9.71554 9.56876 10.211 9.65842 10.7104 9.72005C10.7135 9.68754 10.7208 9.65557 10.7321 9.62492L11.2688 8.17514Z" fill="white"/>
<path d="M8.55085 9.27874L9.04853 7.93712L9.21296 7.49998C8.91003 7.41776 8.59847 7.32252 8.2868 7.22301C8.12664 7.17101 7.96658 7.11474 7.80641 7.0542L7.7415 7.22301L7.48631 7.91992L7.14014 8.84608C7.61612 9.01489 8.08785 9.16201 8.55094 9.28322L8.55085 9.27874Z" fill="white"/>
<path d="M5.36559 7.39633L5.14062 8.0152V8.01957C5.19689 8.04552 5.24879 8.07147 5.30506 8.09741C5.68592 8.27914 6.08408 8.44795 6.49087 8.60372L6.73325 7.95454L6.9972 7.24482L7.15736 6.81633C6.68563 6.63888 6.22694 6.43984 5.78979 6.23206L5.36559 7.39633Z" fill="white"/>
<path d="M1.88205 3.57925C1.88632 3.55757 1.90372 3.54465 1.91237 3.52736H1.9081C1.74925 3.34377 1.60868 3.14517 1.48828 2.93445L1.02521 4.1852C0.948797 4.54614 1.04831 4.92208 1.29353 5.19785L1.88205 3.57925Z" fill="white"/>
<path d="M2.43585 4.0769L1.80396 5.8123H1.80406C1.96204 5.97225 2.1281 6.12386 2.30174 6.26674C2.4099 6.3576 2.52682 6.44847 2.64363 6.53933L3.28844 4.76935C3.10233 4.63951 2.92486 4.50103 2.76044 4.36253C2.6479 4.2674 2.53974 4.17214 2.43585 4.0769Z" fill="white"/>
<path d="M3.26271 6.85539C3.25209 6.88681 3.236 6.91615 3.21509 6.94199C3.54394 7.16269 3.89886 7.37473 4.27535 7.57814C4.35319 7.62138 4.43551 7.66473 4.51773 7.70798L4.58265 7.52187L5.16692 5.92068H5.16681C4.72454 5.69462 4.29418 5.4461 3.87719 5.17627L3.26271 6.85539Z" fill="white"/>
<path d="M13.796 4.53571C12.4342 3.47654 10.9099 2.64496 9.28217 2.07318C7.67563 1.44404 5.97683 1.08144 4.25354 1H4.12808C2.92068 1 2.09841 1.27697 1.92533 1.7487C1.74349 2.23772 2.22385 3.01664 3.20629 3.83465C4.56662 4.89469 6.09152 5.72506 7.71981 6.29269C9.32492 6.92183 11.0221 7.28443 12.7442 7.36598C14.0165 7.38766 14.8951 7.10631 15.0724 6.61728C15.0986 6.54667 15.1118 6.4719 15.1114 6.39658C15.1114 5.91182 14.6397 5.2368 13.7959 4.53574L13.796 4.53571Z" fill="white"/>
</svg>
