<svg width="24" height="24" viewBox="0 0 24 24" fill="none" xmlns="http://www.w3.org/2000/svg">
<path fill-rule="evenodd" clip-rule="evenodd" d="M13.0275 7H10.7568C8.06287 7 6.71588 7 5.68024 7.63367C5.41814 7.79404 5.17486 7.98184 4.95474 8.19371C4.08497 9.0309 3.77836 10.3074 3.16513 12.8603L2.08029 17.3766C1.69894 18.9643 2.71265 20.552 4.34414 20.9225C5.71996 21.2349 7.1352 20.5814 7.75663 19.3466L7.88464 19.0923C8.45521 17.9586 9.63921 17.2399 10.9364 17.2399H13.0636C14.3608 17.2399 15.5448 17.9586 16.1154 19.0923L16.2434 19.3466C16.8648 20.5814 18.28 21.2349 19.6559 20.9225C21.2873 20.552 22.3011 18.9643 21.9197 17.3766L20.8349 12.8603C20.5642 11.7335 20.3533 10.8553 20.1273 10.1538C19.388 10.6863 18.4806 11 17.5 11C15.1837 11 13.2762 9.24997 13.0275 7Z" fill="#FF823F"/>
<circle cx="17.5" cy="6.5" r="4.5" stroke="white" stroke-width="1.5" stroke-linecap="round"/>
<path d="M17.5 5V8M16 6.5L19 6.5" stroke="#FF823F" stroke-width="1.5" stroke-linecap="round"/>
<path d="M9.56066 11.4393L7.43934 13.5606M7.43934 11.4393L9.56066 13.5606" stroke="white" stroke-width="1.5" stroke-linecap="round"/>
<path d="M18 14C18 14.5523 17.5523 15 17 15C16.4477 15 16 14.5523 16 14C16 13.4477 16.4477 13 17 13C17.5523 13 18 13.4477 18 14Z" fill="white"/>
</svg>
