<svg width="16" height="16" viewBox="0 0 16 16" fill="none" xmlns="http://www.w3.org/2000/svg">
<path d="M13.4972 2.42098C13.4972 2.42098 6.9235 1.49915 6.588 1.5C6.24063 1.50085 5.90295 1.61316 5.38528 1.90354L1.79806 3.79676C1.19406 4.1585 1.00159 4.87762 1.00001 5.18543V12.3973C0.997084 12.9876 1.47686 13.5118 2.09201 13.5893L8.85271 14.4848C9.72058 14.5665 10.2956 14.2918 10.2956 14.2918L14.3333 12.1827C14.764 11.9609 15.0015 11.5191 15 10.9398V3.60243C14.9827 2.87231 14.6034 2.60335 13.4972 2.42113L13.4972 2.42098ZM9.00623 13.7158C8.991 13.7158 2.19803 12.8174 2.19803 12.8174C1.98524 12.7905 1.80156 12.5955 1.80253 12.3997V5.18807C1.80322 5.04828 1.91816 4.95503 2.06658 4.95342C2.11531 4.95285 8.84503 5.80625 8.84503 5.80625C9.05421 5.83392 9.23663 6.0281 9.23546 6.22306V6.2259L9.25548 13.4829C9.25479 13.6213 9.1545 13.716 9.00626 13.716L9.00623 13.7158ZM9.90408 4.98442C9.6068 5.1316 9.23278 5.07161 8.94608 5.03361C8.65936 4.99579 2.64213 4.23781 2.64213 4.23781L5.78261 2.58C6.25428 2.31502 6.4909 2.23682 6.92097 2.31273L13.3172 3.18281L9.90408 4.98442ZM11.4215 11.7414C11.355 12.0872 11.1327 12.3369 10.925 12.2991C10.7175 12.2615 10.6028 11.9508 10.6696 11.605C10.7361 11.2594 10.9585 11.0097 11.1662 11.0475C11.3738 11.085 11.4881 11.3958 11.4215 11.7414ZM12.7019 8.86913C12.6353 9.21495 12.413 9.46457 12.2053 9.42685C11.9976 9.38903 11.8834 9.07848 11.9499 8.73285C12.0165 8.38703 12.2387 8.13741 12.4464 8.17514C12.6542 8.21295 12.7686 8.5235 12.7019 8.86913ZM13.951 6.008C13.8844 6.35382 13.6622 6.60345 13.4545 6.56572C13.2467 6.52791 13.1325 6.21735 13.199 5.87173C13.2658 5.52591 13.488 5.27628 13.6956 5.31401C13.9033 5.35163 14.0175 5.66228 13.951 6.008ZM6.84982 7.5287C6.82717 7.15434 7.08029 6.83555 7.41487 6.81668C7.74964 6.79753 8.03909 7.08554 8.06184 7.45989C8.0844 7.83424 7.83137 8.15303 7.49679 8.17191C7.16185 8.19086 6.8723 7.90295 6.84982 7.5287ZM3.96384 6.92872C3.9864 7.30307 3.73337 7.62186 3.3988 7.64073C3.06402 7.65988 2.77458 7.37187 2.75203 6.99752C2.72937 6.62336 2.98249 6.30447 3.31707 6.2855C3.65165 6.26655 3.94139 6.55436 3.96384 6.92872ZM6.02378 9.40603C6.04634 9.78038 5.79331 10.0991 5.45873 10.118C5.12396 10.1371 4.83451 9.84899 4.81196 9.47483C4.78931 9.10048 5.04243 8.78169 5.37701 8.76282C5.71158 8.74377 6.00113 9.03178 6.02378 9.40603ZM8.06711 12.0253C8.08977 12.3996 7.83665 12.7184 7.50207 12.7373C7.1675 12.7563 6.87795 12.4684 6.8553 12.0941C6.83274 11.7197 7.08577 11.4009 7.42034 11.3821C7.75502 11.3629 8.04456 11.6509 8.06711 12.0253ZM3.93964 11.4942C3.9623 11.8685 3.70917 12.1873 3.3746 12.2062C3.03982 12.2253 2.75038 11.9373 2.72763 11.5632C2.70507 11.1887 2.95809 10.87 3.29267 10.851C3.62762 10.8319 3.91709 11.12 3.93964 11.4942V11.4942ZM11.7823 3.33342C11.7823 3.44004 11.4957 3.52647 11.1423 3.52647C10.7888 3.52647 10.5022 3.44004 10.5022 3.33342C10.5022 3.22681 10.7889 3.14019 11.1423 3.14019C11.4958 3.14028 11.7823 3.22681 11.7823 3.33342ZM7.80362 2.84242C7.80362 2.94904 7.51699 3.03547 7.16357 3.03547C6.80995 3.03547 6.52335 2.94904 6.52335 2.84242C6.52335 2.73581 6.80997 2.64919 7.16357 2.64919C7.51709 2.64928 7.80362 2.73581 7.80362 2.84242ZM9.4782 4.58212C9.4782 4.68874 9.19148 4.77536 8.83798 4.77536C8.48449 4.77536 8.19794 4.68883 8.19794 4.58212C8.19794 4.47551 8.48456 4.38908 8.83798 4.38908C9.19151 4.38908 9.4782 4.47551 9.4782 4.58212ZM5.49923 4.09103C5.49923 4.19764 5.21261 4.28426 4.85901 4.28426C4.50539 4.28426 4.21879 4.19774 4.21879 4.09103C4.21879 3.98441 4.50541 3.89798 4.85901 3.89798C5.21271 3.89798 5.49923 3.98441 5.49923 4.09103Z" fill="white"/>
</svg>
