<svg width="15" height="15" viewBox="0 0 15 15" fill="none" xmlns="http://www.w3.org/2000/svg">
<path fill-rule="evenodd" clip-rule="evenodd" d="M9.33792 1.24761C10.557 0.0285467 12.5335 0.0285467 13.7525 1.24761C14.9716 2.46668 14.9716 4.44317 13.7525 5.66224L7.42901 11.9858C7.06773 12.3471 6.85506 12.5598 6.61846 12.7443C6.3396 12.9618 6.03786 13.1483 5.7186 13.3004C5.44774 13.4295 5.16239 13.5246 4.67765 13.6862L2.4569 14.4264L1.92218 14.6047C1.48848 14.7493 1.01031 14.6364 0.687044 14.3131C0.363776 13.9898 0.250898 13.5117 0.395467 13.078L1.31395 10.3225C1.47551 9.83777 1.57062 9.55242 1.69971 9.28155C1.85186 8.96229 2.03834 8.66056 2.25585 8.38169C2.44039 8.14509 2.65309 7.93242 3.01441 7.57112L9.33792 1.24761ZM2.43384 13.38L4.32818 12.7486C4.85559 12.5728 5.07968 12.4972 5.28838 12.3977C5.54208 12.2768 5.78185 12.1286 6.00344 11.9558C6.18574 11.8136 6.35358 11.647 6.74669 11.2539L11.793 6.20756C11.2672 6.02212 10.5899 5.6784 9.95584 5.04432C9.32176 4.41024 8.97803 3.73291 8.7926 3.20715L3.74628 8.25347C3.35317 8.64657 3.18655 8.81441 3.04436 8.99671C2.87152 9.21831 2.72334 9.45808 2.60243 9.71177C2.50297 9.92048 2.42736 10.1446 2.25156 10.672L1.62011 12.5663L2.43384 13.38ZM9.60373 2.39601C9.62653 2.51265 9.66507 2.67121 9.72938 2.85656C9.87415 3.27386 10.1476 3.8219 10.6629 4.33721C11.1783 4.85252 11.7263 5.126 12.1436 5.27078C12.3289 5.33509 12.4875 5.37362 12.6041 5.39642L13.0454 4.95513C13.874 4.12659 13.874 2.78326 13.0454 1.95472C12.2169 1.12618 10.8736 1.12618 10.045 1.95472L9.60373 2.39601Z" fill="#ECEDEE"/>
</svg>
