<svg width="19" height="17" viewBox="0 0 19 17" fill="none" xmlns="http://www.w3.org/2000/svg">
<path d="M15.1667 1H3.5C2.32149 1 1.73223 1 1.36612 1.3435C1 1.687 1 2.23985 1 3.34555V3.9204C1 4.78527 1 5.2177 1.21633 5.57618C1.43267 5.93466 1.82789 6.15715 2.61835 6.60212L5.04587 7.96865C5.57622 8.2672 5.84139 8.41648 6.03126 8.58131C6.42665 8.92458 6.67007 9.32793 6.78037 9.82264C6.83333 10.0602 6.83333 10.3382 6.83333 10.8941L6.83333 13.1187C6.83333 13.8766 6.83333 14.2556 7.04327 14.5511C7.25321 14.8465 7.62607 14.9923 8.3718 15.2838C9.93732 15.8958 10.7201 16.2018 11.2767 15.8537C11.8333 15.5055 11.8333 14.7099 11.8333 13.1187V10.8941C11.8333 10.3382 11.8333 10.0602 11.8863 9.82264C11.9966 9.32793 12.24 8.92458 12.6354 8.58131C12.8253 8.41648 13.0904 8.2672 13.6208 7.96865L16.0483 6.60212C16.8388 6.15715 17.234 5.93466 17.4503 5.57618C17.6667 5.2177 17.6667 4.78527 17.6667 3.9204V3.34555C17.6667 2.23985 17.6667 1.687 17.3005 1.3435C16.9344 1 16.3452 1 15.1667 1Z" stroke="#ECEDEE" stroke-opacity="0.4" stroke-width="1.5"/>
</svg>
