<svg width="14" height="14" viewBox="0 0 14 14" fill="none" xmlns="http://www.w3.org/2000/svg">
<path fill-rule="evenodd" clip-rule="evenodd" d="M6.79565 13.4672L5.80123 13.9125C5.36867 14.1063 4.85964 13.9698 4.58197 13.5859L3.94343 12.7029C3.85993 12.5875 3.7312 12.5131 3.5894 12.4985L2.5055 12.3871C2.03408 12.3386 1.66147 11.966 1.61294 11.4945L1.5015 10.4106C1.48695 10.2688 1.41253 10.1401 1.29709 10.0566L0.414109 9.41807C0.0301978 9.14042 -0.10624 8.63137 0.0874281 8.1988L0.53287 7.20439C0.591078 7.07439 0.591078 6.92566 0.53287 6.79565L0.0874281 5.80123C-0.106242 5.36867 0.0301953 4.85964 0.414109 4.58197L1.29709 3.94343C1.41253 3.85993 1.48695 3.7312 1.5015 3.5894L1.61294 2.5055C1.66148 2.03408 2.03408 1.66147 2.5055 1.61294L3.5894 1.5015C3.73121 1.48695 3.85992 1.41253 3.94343 1.29709L4.58197 0.414109C4.85962 0.0301978 5.36867 -0.10624 5.80123 0.0874281L6.79565 0.53287C6.92564 0.591078 7.07438 0.591078 7.20439 0.53287L8.1988 0.0874281C8.63137 -0.106242 9.14039 0.0301953 9.41807 0.414109L10.0566 1.29709C10.1401 1.41253 10.2688 1.48695 10.4106 1.5015L11.4945 1.61294C11.966 1.66148 12.3386 2.03408 12.3871 2.5055L12.4985 3.5894C12.5131 3.73121 12.5875 3.85992 12.7029 3.94343L13.5859 4.58197C13.9698 4.85962 14.1063 5.36867 13.9125 5.80123L13.4672 6.79565C13.409 6.92564 13.409 7.07437 13.4672 7.20439L13.9125 8.1988C14.1063 8.63137 13.9698 9.14039 13.5859 9.41807L12.7029 10.0566C12.5875 10.1401 12.5131 10.2688 12.4985 10.4106L12.3871 11.4945C12.3386 11.966 11.966 12.3386 11.4945 12.3871L10.4106 12.4985C10.2688 12.5131 10.1401 12.5875 10.0566 12.7029L9.41807 13.5859C9.14042 13.9698 8.63137 14.1063 8.1988 13.9125L7.20439 13.4672C7.07439 13.409 6.92566 13.409 6.79565 13.4672ZM4.29824 6.05397L3.44964 6.90258L6.2984 9.75134L10.6716 5.37819L9.82303 4.52958L6.29845 8.05391L4.29824 6.05397Z" fill="#00C838"/>
</svg>
