<svg width="292" height="221" viewBox="0 0 292 221" fill="none" xmlns="http://www.w3.org/2000/svg">
<g clip-path="url(#clip0_593_2450)">
<path d="M137.164 119.421L105.974 169.562L46.7048 166.814L38.6275 132.847L137.164 119.421Z" fill="#FF8616"/>
<path d="M87.936 10L59.3272 21.133C78.067 43.4172 78.6667 71.006 78.6667 71.006L107.275 59.8731C107.275 59.8731 105.206 27.3607 87.936 10Z" fill="url(#paint0_radial_593_2450)"/>
<path d="M69.3279 18.5576L81.7125 13.7366L87.6288 11.4324C89.0914 12.96 90.4334 14.6048 91.6693 16.323C97.5088 24.4373 100.946 34.2478 102.888 41.7028C103.941 45.7544 104.661 49.4874 105.14 52.506C105.626 55.5503 105.871 57.8692 105.981 59.0598L99.6296 61.5326L87.0511 66.4268L79.7965 69.2513C79.6649 67.4782 79.3541 64.4229 78.6264 60.5178C78.2644 58.5799 77.8037 56.4332 77.2077 54.1216C75.4196 47.1722 72.1178 37.706 66.1393 28.3498C64.7023 26.1005 63.1117 23.8622 61.3493 21.6642L69.3315 18.5576H69.3279ZM78.6886 53.7369C79.2809 56.0338 79.7417 58.1732 80.1073 60.1148C80.8021 60.0159 81.5224 60.0306 82.25 60.1844C84.656 60.7046 86.4148 62.5803 86.9158 64.8369L99.0774 60.1038C98.8544 59.221 98.8215 58.2758 99.0262 57.327C99.5418 54.9348 101.392 53.1801 103.626 52.6635C103.151 49.6999 102.449 46.0622 101.414 42.0911C99.5199 34.8156 96.1522 25.1627 90.4334 17.2168C89.1938 17.8945 87.7202 18.151 86.232 17.8286C84.5683 17.4696 83.2117 16.4585 82.3634 15.125L70.1579 19.8764C70.6917 21.0377 70.8782 22.3748 70.5893 23.7193C70.2054 25.5107 69.0682 26.9431 67.591 27.7673C73.606 37.2518 76.9152 46.8058 78.6959 53.7332L78.6886 53.7369Z" fill="#006633"/>
<path d="M87.9031 47.8536C82.909 47.8536 78.8604 43.7975 78.8604 38.7941C78.8604 33.7906 82.909 29.7346 87.9031 29.7346C92.8972 29.7346 96.9457 33.7906 96.9457 38.7941C96.9457 43.7975 92.8972 47.8536 87.9031 47.8536Z" fill="#006633"/>
<path d="M89.4132 33.2074C90.9124 33.2514 91.7753 34.1233 92.4189 35.215L93.5999 34.6691L94.2983 36.4165L93.1173 36.9624C93.567 38.6475 93.3878 40.6221 91.6108 41.4427C89.3547 42.4831 88.2468 40.71 87.2412 38.8417C86.5794 37.6291 85.7969 36.6363 84.901 37.0503C83.8406 37.5375 83.8772 38.8747 84.3745 40.1165C84.8316 41.2595 85.8773 42.2266 86.8975 42.1973L86.8683 44.1352C85.1168 44.1755 83.8516 43.0655 83.0984 41.5855L81.8076 42.179L81.1092 40.4316L82.4658 39.8051C81.9063 38.0431 82.3159 36.0099 84.1478 35.1637C86.5392 34.061 87.7495 36.0465 88.7989 37.9442C89.3986 39.0395 89.9946 40.0506 90.8904 39.6366C91.8411 39.197 91.7497 38.0028 91.2927 36.8598C90.9124 35.911 90.0567 35.0977 89.3291 35.0098L89.4132 33.2111V33.2074Z" fill="white"/>
<path d="M97.4064 11.088L67.3094 17.1069C81.9246 42.2999 77.7598 69.5736 77.7598 69.5736L107.857 63.5547C107.857 63.5547 111.422 31.1742 97.4064 11.088Z" fill="url(#paint1_radial_593_2450)"/>
<g style="mix-blend-mode:multiply">
<path d="M83.3872 59.928L80.5095 62.8623C80.5095 62.8623 78.0853 63.291 78.0597 60.7632C78.0085 55.6125 77.939 48.5752 76.2789 40.7649C76.2789 40.7649 86.8939 44.8825 88.1298 45.9962C89.3657 47.1099 88.2066 49.0038 88.2066 49.0038C88.2066 49.0038 89.8959 52.3668 84.9522 53.4805L83.8151 56.946L83.3872 59.928Z" fill="#C6C6C6"/>
</g>
<path d="M77.6025 16.2973L90.6308 13.6927L96.8542 12.4471C98.0316 14.2055 99.0701 16.0592 99.9915 17.9641C104.343 26.9687 106.039 37.2225 106.668 44.9045C107.008 49.0808 107.071 52.8797 107.027 55.9349C106.979 59.0158 106.822 61.3421 106.723 62.5363L100.039 63.8734L86.806 66.5184L79.1712 68.046C79.3467 66.2766 79.5661 63.214 79.5259 59.2393C79.5039 57.2684 79.4198 55.074 79.2333 52.6928C78.6702 45.5383 77.0504 35.6435 72.7723 25.3934C71.7448 22.9317 70.5637 20.4479 69.2071 17.9788L77.6025 16.301V16.2973ZM80.7581 52.5683C80.9446 54.9348 81.0324 57.1219 81.0543 59.0964C81.7563 59.1184 82.4621 59.2576 83.1532 59.536C85.4312 60.4628 86.8426 62.6169 86.9486 64.9285L99.7429 62.3715C99.677 61.4629 99.805 60.5288 100.171 59.6276C101.088 57.36 103.217 55.9496 105.506 55.8287C105.549 52.8284 105.484 49.1247 105.151 45.0327C104.537 37.5375 102.884 27.4486 98.624 18.6345C97.2857 19.0888 95.7901 19.0851 94.3787 18.51C92.7991 17.8689 91.64 16.638 91.0367 15.1763L78.1949 17.7443C78.524 18.9826 78.4728 20.327 77.9572 21.6055C77.2698 23.3017 75.9059 24.5179 74.3043 25.0747C78.5935 35.4567 80.206 45.4394 80.7691 52.572L80.7581 52.5683Z" fill="#006633"/>
<path d="M92.4115 48.5056C87.4174 48.5056 83.3689 44.4496 83.3689 39.4461C83.3689 34.4427 87.4174 30.3866 92.4115 30.3866C97.4056 30.3866 101.454 34.4427 101.454 39.4461C101.454 44.4496 97.4056 48.5056 92.4115 48.5056Z" fill="#006633"/>
<path d="M89.6947 34.2039C88.2284 34.5043 87.5264 35.5153 87.0803 36.6986L85.8224 36.3652L85.4348 38.2079L86.6927 38.5413C86.5427 40.2777 87.0547 42.19 88.9487 42.6919C91.3474 43.3256 92.1373 41.3877 92.8027 39.3729C93.2452 38.065 93.8448 36.9514 94.7992 37.2042C95.9254 37.5009 96.1229 38.8234 95.8486 40.1312C95.5963 41.3364 94.7334 42.4721 93.7242 42.6186L94.0862 44.5236C95.8194 44.2598 96.8725 42.9483 97.3588 41.3584L98.7336 41.7211L99.1212 39.8784L97.6769 39.4974C97.9255 37.6621 97.1686 35.7315 95.2197 35.2186C92.6748 34.5482 91.8228 36.7133 91.1171 38.7611C90.7149 39.9407 90.3017 41.0434 89.3473 40.7906C88.3345 40.5232 88.2211 39.3289 88.4734 38.1237C88.6855 37.1236 89.3875 36.1747 90.0859 35.9623L89.691 34.2039H89.6947Z" fill="white"/>
<path d="M39.7391 120.073C46.9644 103.526 57.7585 76.2336 57.8353 76.252L57.561 58.5872L62.7899 43.974L73.7193 39.3069C73.7193 39.3069 82.3633 43.1132 86.21 44.6811C90.0567 46.2453 87.7238 48.828 87.7238 48.828C87.7238 48.828 88.9597 51.6488 85.6762 52.3485L81.9575 51.5352C81.9575 51.5352 83.9649 52.6342 83.9247 53.6966C83.8845 54.759 83.1787 56.7189 83.1787 56.7189L83.0618 57.8765L82.9009 59.4994L80.2499 62.3055C77.9792 62.6865 77.928 59.9536 77.928 59.9536C77.928 59.9536 79.0395 66.7309 77.4234 69.4601L73.7193 77.0689C73.7595 77.0689 73.7961 77.0689 73.8363 77.0652C73.6023 77.8382 73.328 78.6112 73.0026 79.3841C66.0442 95.9169 66.6585 135.741 63.4627 145.442C60.2669 155.139 51.5095 161.938 51.5095 161.938C26.2538 154.26 30.6746 140.826 39.7318 120.077L39.7391 120.073Z" fill="#FFBFA6"/>
<g style="mix-blend-mode:multiply">
<path d="M83.1824 56.7189C81.2554 56.3159 76.3191 53.3559 76.3191 53.3559C76.3191 53.3559 65.7151 55.1253 65.5688 53.3303C72.4102 52.3668 75.5878 51.788 75.5878 51.788C76.7981 52.6525 83.186 56.7189 83.186 56.7189H83.1824Z" fill="#FFCBCC"/>
</g>
<g style="mix-blend-mode:multiply" opacity="0.3">
<path d="M73.7266 77.0689C73.7669 77.0689 73.8034 77.0689 73.8437 77.0652C73.6096 77.8382 73.3354 78.6112 73.01 79.3841C67.9237 91.4696 66.8816 116.003 65.4446 132.118C55.1441 132.21 44.8473 132.463 34.5688 133.14C35.0697 131.591 39.1724 122.667 39.1724 122.667C39.1724 122.667 39.3333 126.565 42.8984 127.781C46.4599 129.001 59.0639 122.158 59.0639 122.158L66.132 79.2742C66.132 79.2742 62.8594 80.0875 62.395 77.8565C65.3422 74.7134 70.3663 73.2627 71.4815 71.3834C72.6882 69.3502 69.8727 66.8518 70.0774 62.2799C70.1286 60.8988 67.1741 60.4739 67.0388 59.1441C68.2162 59.2466 76.5349 58.0377 76.5349 58.0377L78.8239 58.7777C77.8 59.0818 77.9536 60.1442 77.9536 60.1442L78.1547 61.6791C78.3704 63.8735 78.535 67.6028 77.4344 69.4638L73.7303 77.0726L73.7266 77.0689Z" fill="#FFCBCC"/>
</g>
<g style="mix-blend-mode:multiply">
<path d="M87.7422 48.8463C87.669 48.8426 87.5995 48.8353 87.5264 48.8353C86.9377 48.8353 81.3286 46.0548 77.0285 43.67C76.6885 43.4795 66.9328 45.117 66.6293 44.9338C66.3258 44.7507 74.5018 42.527 74.2532 42.3548C76.3886 42.93 86.5209 47.7656 86.5209 47.7656C86.5209 47.7656 87.9359 48.9306 88.3199 46.4541C88.766 47.6814 87.7312 48.828 87.7312 48.828L87.7458 48.8463H87.7422Z" fill="#FFCBCC"/>
</g>
<g style="mix-blend-mode:multiply">
<path d="M42.924 130.821C42.5108 130.613 42.1122 130.378 41.721 130.125C41.5747 130.785 41.4394 131.437 41.3151 132.085C41.8453 131.66 42.3828 131.239 42.924 130.821Z" fill="#FFD1CD"/>
</g>
<path d="M40.1596 118.337L39.4027 121.095C39.4027 121.095 40.3241 129.763 43.3371 129.371C49.736 129.012 62.0842 126.572 62.0842 126.572L66.2417 122.304L66.4391 120.143C70.7392 124.187 72.5455 155.227 58.0145 165.037C47.0448 170.928 33.5888 163.272 32.1225 152.589L33.1646 136.573L33.0769 133.613L36.1191 121.165L40.1632 118.337H40.1596Z" fill="#FF8616"/>
<g style="mix-blend-mode:multiply">
<path d="M33.9325 135.005C34.0275 134.752 42.9349 139.269 42.9349 139.269C42.9349 139.269 43.4687 131.887 43.498 131.697L62.2926 128.862L66.7609 124.601C66.7609 124.601 67.0424 121.498 66.5671 120.282C69.474 123.403 70.6843 139.214 66.2563 151.776L98.2583 151.545C98.2583 151.545 102.928 129.697 112.138 124.993L135.555 119.421L106.23 169.822L46.5951 166.704C46.5951 166.704 42.0207 165.118 42.1926 158.07C42.3644 151.021 42.6277 143.357 42.6277 143.357C37.6731 141.181 33.9288 135.001 33.9288 135.001L33.9325 135.005Z" fill="#B9CED8" fill-opacity="0.23"/>
</g>
<g style="mix-blend-mode:multiply">
<path d="M42.4193 140.112C42.4193 140.112 53.9593 142.771 64.2708 136.936C59.6599 142.581 46.0649 144.625 42.4193 140.112Z" fill="#B9CED8" fill-opacity="0.43"/>
</g>
<g style="mix-blend-mode:multiply">
<path d="M67.1558 48.9929L76.7725 47.3224C76.7725 47.3224 84.4951 50.9491 85.5555 51.4583C86.6159 51.9638 87.6836 51.0956 87.6836 51.0956C87.402 51.5975 86.8645 52.1031 85.6688 52.3412L81.9831 51.5462L76.469 48.1979L67.1558 48.9929Z" fill="#FFCBCC"/>
</g>
<path d="M150.232 93.4991L177.996 78.787L175.115 117.893L208.773 134.192C208.773 134.192 172.241 171.25 139.369 164.158C106.493 157.069 112.022 128.352 112.022 128.352L143.014 118.948L150.236 93.4991H150.232Z" fill="#FFBFA6"/>
<g style="mix-blend-mode:multiply" opacity="0.32">
<path d="M171.009 108.061L156.891 117.069C151.227 120.179 146.51 117.091 146.247 114.849C145.983 112.607 150.232 93.4991 150.232 93.4991L177.996 78.787L175.115 117.893L184.234 121.56C184.234 121.56 186.981 151.029 155.11 140.962L160.844 121.506L170.449 115.091L171.009 108.057V108.061Z" fill="#FFCBCC"/>
</g>
<path d="M183.887 247.181L192.974 280.884C187.77 284.049 143.855 287.837 129.547 285.976C115.236 284.115 92.4006 278.609 91.6583 276.001C90.916 273.392 99.6478 238.261 99.6478 238.261L101.93 193.659C101.93 193.659 101.513 145.632 114.943 127.33L142.956 118.927L136.37 121.773C136.37 121.773 131.387 132.646 146.214 134.155C182.044 137.796 180.37 121.835 180.37 121.835L175.393 117.868L204.66 135.569L183.883 247.185L183.887 247.181Z" fill="#FFD34E"/>
<g style="mix-blend-mode:multiply">
<path d="M99.6479 238.261L101.93 193.659C101.93 193.659 101.513 145.632 114.943 127.33L142.956 118.927L136.37 121.773C136.37 121.773 131.387 132.646 146.214 134.155C146.569 134.192 146.912 134.221 147.256 134.254C146.25 137.027 118.739 209.91 146.554 247.185C151.088 261.153 158.84 273.242 169.809 283.448C170.215 283.884 170.629 284.309 171.038 284.734C156.141 286.236 137.851 287.057 129.544 285.976C115.232 284.115 92.397 278.609 91.6547 276.001C90.9124 273.392 99.6442 238.261 99.6442 238.261H99.6479Z" fill="#FFD1CD" fill-opacity="0.2"/>
</g>
<g style="mix-blend-mode:multiply">
<path d="M175.393 117.864L204.66 135.566L183.883 247.181L192.97 280.884C188.721 283.467 158.664 286.467 139.987 286.467C135.789 286.467 132.169 286.317 129.544 285.972C115.232 284.111 92.3969 278.602 91.6547 275.997C90.9124 273.389 99.6442 238.257 99.6442 238.257L101.926 193.655C101.926 193.655 101.509 145.629 114.939 127.327L142.956 118.923L136.37 121.769C136.37 121.769 131.387 132.642 146.214 134.151C149.881 134.525 153.161 134.694 156.083 134.694C181.722 134.694 180.366 121.832 180.366 121.832L175.389 117.864M156.083 138.723C152.927 138.723 149.468 138.533 145.808 138.163C139.497 137.522 135.189 135.25 132.999 131.415C132.063 129.774 131.664 128.096 131.562 126.55L117.437 130.785C112.749 137.928 109.29 150.648 107.403 167.715C105.868 181.621 105.948 193.505 105.948 193.623V193.864L103.659 238.466L103.641 238.854L103.546 239.231C100.083 253.167 96.5252 268.773 95.7756 274.022C97.5746 274.803 101.432 276.129 108.332 277.814C115.649 279.602 123.77 281.155 130.059 281.976C132.403 282.28 135.742 282.433 139.987 282.433C148.656 282.433 160.281 281.774 171.078 280.671C179.799 279.781 185.145 278.895 188.092 278.239L180 248.225L179.763 247.338L179.931 246.437L200.195 137.566L183.229 127.305C182.691 128.484 181.916 129.744 180.801 130.986C176.194 136.115 167.875 138.716 156.083 138.716" fill="#B2B2B2"/>
</g>
<path d="M142.437 118.406L111.707 123.341C95.1686 145.882 99.3553 193.828 99.3553 193.828L96.5764 239.385L87.0292 279.598C87.0292 279.598 91.3658 288.745 112.844 291.057C119.331 197.945 142.598 140.189 142.598 140.189L142.437 118.41V118.406Z" fill="#FF8616"/>
<g style="mix-blend-mode:multiply">
<path d="M103.367 192.674L99.9769 239.418C99.9769 239.418 90.426 269.161 88.7148 272.484L96.5763 239.382L99.3553 193.824C99.3553 193.824 96.3058 158.861 105.714 134.609L99.9769 168.169C99.9769 168.169 99.454 193.458 121.353 190.194C114.885 194.718 103.367 192.674 103.367 192.674Z" fill="#B9CED8" fill-opacity="0.23"/>
</g>
<path d="M243.92 199.143L211.966 133.049L175.393 117.864L180.369 121.832C180.369 121.832 181.627 133.932 158.295 134.653C158.204 135.001 155.011 140.24 155.011 140.24C155.011 140.24 151.571 160.78 150.411 171.782C143.687 235.506 150.386 294.786 150.386 294.786C150.386 294.786 189.547 290.471 197.584 282.173L188.224 236.202L191.818 217.665L197.358 189.087L227.634 228.941L243.924 199.143H243.92Z" fill="#FF8616"/>
<g style="mix-blend-mode:multiply">
<path d="M203.373 151.805C203.373 151.805 205.632 135.789 212.039 133.199L243.92 199.143L227.875 212.566C213.626 200.378 222.314 179.834 222.314 179.834L206.846 147.277L203.373 151.805Z" fill="#B9CED8" fill-opacity="0.23"/>
</g>
<g style="mix-blend-mode:multiply">
<path d="M150.415 171.785C151.479 161.696 154.463 143.592 154.949 140.654C155.498 141.746 152.207 165.818 151.329 174.133C147.874 206.88 149.68 236.341 150.437 257.032C151.059 274.066 152.167 286.745 152.671 291.929C156.266 291.471 163.191 290.508 170.515 289.072C177.152 287.771 182.088 286.485 185.767 285.295L178.439 259.662L174.007 263.058L182.607 199.597C182.607 199.597 159.604 198.264 154.979 193.853C155.121 192.784 185.997 195.941 190.169 178.445L199.204 163.821L198.334 184.365C198.334 184.365 221.089 215.083 222.186 216.313C222.186 216.313 221.403 202.473 226.226 198.425C231.049 194.377 238.223 193.242 238.223 193.242C239.997 195.41 241.807 197.546 243.646 199.656L235.58 214.412L227.634 228.945L197.358 189.091L196.583 193.088L191.818 217.669L190.681 223.53L188.224 236.205L197.584 282.177C197.584 282.177 197.552 282.21 197.533 282.225C197.427 282.335 197.314 282.441 197.197 282.551C197.146 282.598 197.087 282.646 197.032 282.694C196.945 282.771 196.86 282.844 196.769 282.921C196.703 282.976 196.634 283.027 196.564 283.082C196.477 283.152 196.392 283.217 196.301 283.287C196.224 283.342 196.144 283.401 196.067 283.456C195.976 283.518 195.888 283.584 195.796 283.646C195.712 283.705 195.621 283.76 195.533 283.818C195.442 283.877 195.347 283.939 195.252 283.998C195.157 284.056 195.061 284.115 194.963 284.17C194.868 284.229 194.769 284.283 194.67 284.342C194.568 284.401 194.465 284.459 194.359 284.518C194.261 284.573 194.162 284.628 194.06 284.683C193.95 284.741 193.837 284.8 193.723 284.859C193.621 284.91 193.518 284.965 193.416 285.016C193.299 285.075 193.178 285.137 193.054 285.196C192.952 285.247 192.849 285.295 192.743 285.346C192.615 285.408 192.487 285.467 192.356 285.525C192.253 285.573 192.147 285.621 192.045 285.668C191.91 285.731 191.771 285.789 191.632 285.851C191.529 285.895 191.427 285.939 191.325 285.983C191.178 286.046 191.032 286.108 190.878 286.17C190.78 286.21 190.677 286.251 190.579 286.291C190.421 286.353 190.26 286.419 190.1 286.482C190.008 286.518 189.913 286.555 189.818 286.588C189.646 286.654 189.471 286.72 189.295 286.786C189.215 286.815 189.134 286.844 189.054 286.873C188.86 286.943 188.67 287.016 188.472 287.086C188.414 287.108 188.355 287.126 188.293 287.148C173.974 292.193 150.386 294.79 150.386 294.79C150.386 294.79 143.687 235.509 150.412 171.785H150.415Z" fill="#B9CED8" fill-opacity="0.23"/>
</g>
<g style="mix-blend-mode:multiply">
<path d="M110.819 288.588C114.27 241.404 122.055 203.656 128.026 180.156C134.005 156.637 140.605 142.346 141.596 139.789C141.596 139.789 141.632 139.097 141.72 138.254L136.206 131.521L129.343 133.525C129.343 133.525 130.908 118.377 136.817 119.773C141.12 120.787 142.06 130.444 142.25 135.609C142.342 135.412 142.444 135.287 142.557 135.261L142.594 140.185C142.594 140.185 119.327 197.942 112.841 291.053C91.3621 288.745 87.0255 279.594 87.0255 279.594C87.0255 279.594 93.461 287.994 110.819 288.588Z" fill="#B9CED8" fill-opacity="0.43"/>
</g>
<g style="mix-blend-mode:multiply">
<path d="M161.743 125.271L175.426 114.179L175.934 109.035L178.764 110.867C178.764 110.867 184.088 116.582 184.457 122.128C184.827 127.675 173.155 140.654 173.155 140.654L166.021 135.507L157.801 139.053L161.739 125.271H161.743Z" fill="#B9CED8" fill-opacity="0.43"/>
</g>
<path d="M161.743 125.271L175.309 114.296L175.799 109.006L179.58 110.508C179.58 110.508 184.973 114.179 185.346 119.725C185.715 125.271 173.36 138.166 173.36 138.166L166.855 133.708L154.898 140.702L161.747 125.275L161.743 125.271Z" fill="#FF8616"/>
<g style="mix-blend-mode:multiply">
<path d="M162.771 130.99L168.051 134.565L157.834 139.082L162.771 130.99Z" fill="#B9CED8" fill-opacity="0.43"/>
</g>
<g style="mix-blend-mode:multiply">
<path d="M253.427 209.844C253.88 209.95 254.341 210.023 254.802 210.082C254.495 210.686 254.18 211.276 253.862 211.855C253.723 211.185 253.581 210.514 253.427 209.844Z" fill="#FFD1CD"/>
</g>
<path d="M228.19 207.932C231.857 198.564 256.912 169.166 262.795 151.761C266.115 154.307 269.794 156.242 273.831 157.56C274.818 158.081 275.82 158.549 276.833 158.974L275.878 162.18L263.11 202.393C256.824 224.252 251.299 238.667 226.862 228.366C226.862 228.366 224.449 217.486 228.19 207.935V207.932Z" fill="url(#paint2_radial_593_2450)"/>
<g style="mix-blend-mode:multiply">
<path d="M240.472 190.161C240.571 190.021 240.673 189.014 240.772 188.875C241.32 189.468 241.799 194.022 241.799 194.022L255.822 205.88C255.822 205.88 270.412 168.653 273.589 159.663C274.452 160.103 275.326 160.506 276.211 160.872L263.205 202.1C263.058 202.598 262.912 203.096 262.773 203.587C261.248 208.891 259.786 213.683 258.1 217.757C251.752 212.884 245.675 207.712 240.373 201.799C240.761 197.821 240.509 194.168 240.472 190.164V190.161Z" fill="#FFCBCC"/>
</g>
<path d="M242.095 186.475L240.863 188.27L241.342 194.242C241.342 194.242 249.321 204.067 254.038 208.455C256.115 210.694 262.378 204.591 262.378 204.591L263.289 201.722L263.559 201.971L264.4 205.62C264.4 205.62 262.334 216.768 261.508 218.182C260.382 220.112 256.275 222.801 256.275 222.801L253.471 228.065C245.496 235.378 228.793 235.857 224.087 224.252C219.14 207.327 236.183 186.834 242.099 186.472L242.095 186.475Z" fill="#FF8616"/>
<g style="mix-blend-mode:multiply">
<path d="M244.863 227.798C244.863 227.798 218.536 224.926 233.978 205.239C241.748 216.372 252.085 219.717 252.085 219.717L254.846 210.426C259.468 209.749 263.464 205.649 263.464 205.649L263.567 201.971L264.408 205.62C264.408 205.62 262.342 216.768 261.515 218.182C260.389 220.112 256.283 222.801 256.283 222.801L253.478 228.065C247.522 233.531 236.691 235.172 229.63 230.817C229.63 230.817 236.786 232.366 241.609 230.798C246.432 229.23 244.867 227.794 244.867 227.794L244.863 227.798Z" fill="#B9CED8" fill-opacity="0.23"/>
</g>
<path d="M272.035 127.583C272.035 127.583 280.705 137.445 283.963 132.36C287.225 127.279 284.914 115.208 281.425 115.069C271.9 114.699 264.532 125.689 264.532 125.689C264.532 125.689 264.166 129.558 272.035 127.583Z" fill="url(#paint3_radial_593_2450)"/>
<path d="M269.596 120.894C269.596 120.894 269.041 124.44 265.421 127.334C265.399 127.352 265.377 127.374 265.355 127.393C264.441 126.671 264.532 125.689 264.532 125.689C264.532 125.689 271.904 114.699 281.425 115.069C282.288 115.102 283.078 115.871 283.733 117.08C281.509 114.999 273.231 116.472 269.593 120.894H269.596Z" fill="#DEDC00"/>
<path style="mix-blend-mode:multiply" opacity="0.49" d="M279.754 127.598C279.754 127.598 284.372 130.32 285.407 123.183C285.758 126.521 285.407 130.122 283.967 132.364C280.705 137.445 272.039 127.587 272.039 127.587C267.132 128.818 265.428 127.777 264.839 126.821C274.862 119.978 279.754 127.601 279.754 127.601V127.598Z" fill="url(#paint4_radial_593_2450)"/>
<path d="M262.631 149.651L263.991 141.892L257.266 135.968C255.8 135.943 254.55 137.262 254.55 137.262L254.352 132.756L255.892 130.671V130.001L257.051 127.334L256.915 126.957L258.298 124.224L258.528 123.623L260.539 121.974L268.225 120.216C268.225 120.216 274.518 122.689 277.644 127.045C277.644 127.045 283.828 143.039 277.238 157.674C277.238 157.674 274.587 158.355 262.631 149.64V149.651Z" fill="#FFBFA6"/>
<path d="M260.762 122.458L258.905 123.828L257.405 126.799L257.471 127.323L256.396 130.001C256.396 130.001 256.363 130.32 256.308 130.818L254.798 133.005L254.992 137.02L254.542 137.265L254.345 132.759L255.884 130.675V130.005L257.043 127.338L256.908 126.96L258.29 124.227L258.521 123.627L260.532 121.978L268.218 120.22C268.218 120.22 268.814 120.454 269.728 120.905L268.181 120.465L260.751 122.458H260.762Z" fill="#FFCBCB"/>
<g style="mix-blend-mode:multiply" opacity="0.3">
<path d="M273.103 153.095C273.004 151.263 272.869 150.512 272.478 149.512C272.236 148.677 271.896 147.867 271.443 147.087C270.887 146.365 270.331 145.647 269.779 144.925C268.452 143.603 266.883 142.687 265.08 142.182C264.711 142.13 264.338 142.083 263.969 142.031L263.994 141.885L257.27 135.961C255.804 135.936 254.553 137.254 254.553 137.254L256.319 135.283L256.034 133.99L265.037 135.309C265.037 135.309 267.007 133.074 266.349 131.217C266.349 131.217 268.152 129.305 267.516 127.576C267.516 127.576 269.201 125.795 268.532 124.4C268.532 124.4 269.615 122.539 269.048 121.143C269.048 121.143 275.366 123.861 277.652 127.045C277.652 127.045 283.835 143.039 277.246 157.674C277.246 157.674 276.237 157.93 272.668 156.091C272.997 155.139 273.147 154.139 273.107 153.087L273.103 153.095Z" fill="#FFCBCC"/>
</g>
<path d="M290.76 185.318C297.587 223.713 274.785 226.281 257.409 227.102C240.03 227.923 232.226 221.999 228.065 216.79C202.81 185.186 256.791 135.217 256.791 135.217L262.225 137.939C262.225 137.939 287.1 164.744 290.76 185.318Z" fill="url(#paint5_radial_593_2450)"/>
<path style="mix-blend-mode:multiply" opacity="0.49" d="M258.418 220.442C292.746 213.181 279.359 175.203 269.285 153.069C264.949 143.541 261.588 139.848 261.588 139.848C261.588 139.848 260.956 138.69 260.13 138.588C259.965 138.566 257.734 151.827 257.533 151.761C257.31 151.684 259.113 138.273 258.842 138.115C258.59 137.972 258.32 137.786 258.031 137.558C257.936 137.481 256.524 143.321 256.177 142.98C255.782 142.596 257.149 137.035 256.217 135.763C256.586 135.408 256.787 135.221 256.787 135.221L262.221 137.943C262.221 137.943 287.1 164.744 290.76 185.318C297.587 223.713 274.785 226.281 257.409 227.102C240.03 227.923 232.226 221.999 228.065 216.79C224.895 212.822 222.972 208.562 222.036 204.147C224.08 209.305 233.963 225.611 258.422 220.438L258.418 220.442Z" fill="url(#paint6_radial_593_2450)"/>
<path d="M267.494 173.87C265.596 169.62 262.309 168.144 258.729 167.547V163.524L253.38 163.532V167.554C248.498 168.206 243.613 170.987 243.62 177.042C243.628 184.717 249.522 185.864 255.544 186.596C259.46 187.098 262.956 188.204 262.96 191.256C262.96 194.861 259.468 196.3 255.68 196.304C252.184 196.308 248.436 194.417 247.295 191.461L242.33 193.78C244.311 198.861 248.696 201.213 253.413 201.671V206.063L258.766 206.056V201.433C263.984 201.012 268.741 197.491 268.733 191.249C268.726 183.112 262.155 181.918 256.009 181.094C252.469 180.636 249.142 180.086 249.142 177.035C249.142 173.8 252.338 172.686 255.833 172.679C258.74 172.675 261.855 174.196 262.952 176.185L267.498 173.866L267.494 173.87Z" fill="white"/>
<g style="mix-blend-mode:multiply">
<path d="M260.283 130.404L255.873 130.664L255.899 129.99L260.283 130.404Z" fill="#FFCBCC"/>
</g>
<g style="mix-blend-mode:multiply">
<path d="M261.607 127.118L257.069 127.312L256.923 126.971C256.923 126.971 260.656 126.554 261.603 127.118H261.607Z" fill="#FFCBCC"/>
</g>
<g style="mix-blend-mode:multiply">
<path d="M262.671 123.381L258.327 124.161L258.532 123.634C258.532 123.634 261.183 123.253 262.671 123.381Z" fill="#FFCBCC"/>
</g>
<path d="M145.691 109.435L142.996 118.985L142.466 137.573L136.122 128.913L128.911 131.177C128.911 131.177 131.153 124.139 132.791 121.33C137.782 112.757 145.691 109.435 145.691 109.435Z" fill="#FF8616"/>
<path d="M132.791 121.326C137.782 112.754 145.691 109.431 145.691 109.431L145.424 110.384C133.171 116.743 130.162 129.517 129.646 130.942L128.911 131.173C128.911 131.173 131.153 124.136 132.791 121.326Z" fill="#EA7A0C"/>
<g style="mix-blend-mode:multiply">
<path d="M145.691 109.435L142.996 118.985L142.583 133.543C142.133 131.961 140.232 120.135 140.232 120.135L145.695 109.435H145.691Z" fill="#B9CED8" fill-opacity="0.4"/>
</g>
<path style="mix-blend-mode:multiply" opacity="0.5" d="M181.386 71.2113L181.375 71.2002C181.375 71.2002 181.471 71.315 181.386 71.2113Z" fill="url(#paint7_radial_593_2450)"/>
<path style="mix-blend-mode:multiply" opacity="0.5" d="M180.816 64.7929L180.805 64.7783C180.805 64.7783 180.907 64.9322 180.816 64.7929Z" fill="url(#paint8_radial_593_2450)"/>
<path d="M191.5 60.7559C191.5 60.7559 194.316 75.9149 191.778 81.8825C186.918 93.3049 176.154 96.3675 176.154 96.3675L179.503 77.9078L191.496 60.7559H191.5Z" fill="#672B3A"/>
<g style="mix-blend-mode:multiply">
<path d="M191.5 60.7559C191.5 60.7559 194.316 75.9149 191.778 81.8825C186.918 93.3049 176.227 96.3748 176.227 96.3748L179.507 77.9078L191.5 60.7559Z" fill="#B2B2B2"/>
</g>
<path style="mix-blend-mode:multiply" opacity="0.5" d="M180.314 75.5267L180.307 75.5156C180.307 75.5156 180.396 75.6194 180.314 75.5267Z" fill="url(#paint9_radial_593_2450)"/>
<path style="mix-blend-mode:multiply" opacity="0.5" d="M179.836 69.6066L179.825 69.592C179.825 69.592 179.916 69.7349 179.836 69.6066Z" fill="url(#paint10_radial_593_2450)"/>
<path d="M166.402 36.8488C166.402 36.8488 187.672 41.6442 193.826 57.675C195.427 61.8513 194.462 71.4273 191.752 79.0544C189.416 85.6302 185.591 90.7003 183.269 90.2717L181.404 89.1653C180.051 92.0924 174.896 98.7121 174.896 98.7121C174.896 98.7121 161.1 107.845 154.708 107.801C148.316 107.757 142.795 104.584 142.795 104.584L136.473 82.2416C136.473 82.2416 138.378 71.7827 139.299 62.0308C140 25.5 166.405 36.8378 166.405 36.8378L166.402 36.8488Z" fill="#FFBFA6"/>
<g style="mix-blend-mode:multiply" opacity="0.32">
<path d="M179.697 78.3291L178.029 76.633L179.583 65.0421C179.583 65.0421 165.476 60.9281 162.91 51.1066L161.959 57.9645C145.479 36.7133 141.208 48.2382 141.208 48.2382C137.27 47.7656 166.405 36.8488 166.405 36.8488C166.405 36.8488 187.496 41.4317 193.646 57.4626C195.288 61.745 194.392 71.2075 191.61 78.9958C190.246 82.8094 188.483 86.2823 186.677 88.3411C185.478 89.7075 184.169 90.4402 183.269 90.2717L181.404 89.1653C180.051 92.0924 174.896 98.7121 174.896 98.7121C174.896 98.7121 161.1 107.845 154.708 107.801C148.316 107.757 142.795 104.584 142.795 104.584L142.638 104.024C142.638 104.024 149.688 107.951 156.207 105.845C164.932 103.024 170.365 99.7305 174.248 94.1878C179.411 86.8171 179.7 78.3181 179.7 78.3181L179.697 78.3291Z" fill="#FFD1CD"/>
</g>
<path style="mix-blend-mode:multiply" opacity="0.5" d="M146.689 75.3361C140.959 75.2885 139.826 68.6248 140.638 64.5329C141.449 60.4409 143.713 59.0854 148.057 59.3529C158.207 59.9756 151.04 75.3728 146.689 75.3361Z" fill="url(#paint11_radial_593_2450)"/>
<path style="mix-blend-mode:multiply" opacity="0.5" d="M175.74 71.1782C174.929 75.2702 171.385 81.3917 167.177 80.2707C162.412 79.0032 160.639 70.0133 162.54 65.9762C163.707 63.4998 166.581 62.7012 170.208 63.5841C174.439 64.6098 176.552 67.0899 175.74 71.1819V71.1782Z" fill="url(#paint12_radial_593_2450)"/>
<path d="M146.843 67.9361C146.678 69.5004 147.322 70.8522 148.283 70.9511C149.245 71.0537 150.155 69.8667 150.32 68.3025C150.485 66.7382 149.841 65.3864 148.879 65.2875C147.918 65.1849 147.007 66.3719 146.843 67.9361Z" fill="#672B3A"/>
<path d="M148.207 67.4196C148.115 68.2732 148.47 69.0095 148.993 69.0681C149.519 69.1231 150.017 68.4746 150.104 67.6211C150.196 66.7675 149.841 66.0312 149.318 65.9726C148.795 65.9176 148.294 66.5624 148.207 67.4196Z" fill="white"/>
<path d="M165.97 71.8742C165.798 73.5044 166.471 74.9148 167.473 75.0211C168.475 75.1273 169.425 73.8891 169.597 72.2589C169.769 70.6287 169.096 69.2183 168.095 69.1121C167.093 69.0058 166.142 70.244 165.97 71.8742Z" fill="#672B3A"/>
<path d="M167.393 71.3357C167.297 72.2259 167.667 72.9952 168.212 73.0538C168.76 73.1125 169.279 72.4347 169.371 71.5445C169.466 70.6543 169.096 69.885 168.552 69.8264C168.003 69.7678 167.484 70.4419 167.393 71.3357Z" fill="white"/>
<g style="mix-blend-mode:multiply" opacity="0.2">
<path d="M151.168 80.4905L154.627 83.5054L154.968 71.05L151.168 80.4905Z" fill="#FFD1CD"/>
</g>
<path d="M149.98 83.2014L146.952 80.2817L153.68 70.4749L148.159 80.1425L149.98 83.2014Z" fill="white"/>
<g style="mix-blend-mode:multiply" opacity="0.2">
<path d="M148.397 80.6443L150.836 81.1682L154.726 84.3737C154.726 84.3737 152.902 85.784 151.139 84.6338L148.397 80.648V80.6443Z" fill="#FFD1CD"/>
</g>
<path d="M154.35 27.2691L151.04 31.2622C163.081 24.2139 186.849 37.7207 186.849 37.7207C197.946 45.8277 196.937 65.6538 196.937 65.6538C196.937 65.6538 193.559 83.7509 186.805 88.2641C197.8 71.9622 188.352 70.4089 186.205 72.8267L181.964 83.586L182.556 77.6917L179.404 76.0761L182.355 62.4924C169.521 61.6022 163.209 51.5792 163.209 51.5792L164.442 58.3674C150.375 39.6916 141.087 50.2018 141.087 50.2018L139.223 61.7267L138.18 49.253L140.224 45.3698C140.224 45.3698 138.648 32.3319 154.342 27.2691H154.35Z" fill="#1E1C19"/>
<path d="M163.059 61.7487L164.058 63.0785L164.328 62.5913C165.487 61.6937 173.444 62.6609 176.058 67.9764C167.813 62.2176 162.708 65.5073 162.708 65.5073C161.9 63.8808 163.063 61.745 163.063 61.745L163.059 61.7487Z" fill="#672B3A"/>
<path d="M152.412 60.8915C151.066 59.3638 145.548 57.0266 141.625 61.1736C150.199 58.404 153.044 64.2801 153.044 64.2801C153.044 64.2801 153.761 62.4191 152.415 60.8915H152.412Z" fill="#672B3A"/>
<g style="mix-blend-mode:multiply">
<path d="M161.228 50.4545L157.077 43.0582C166.08 50.8135 179.774 55.8946 179.774 55.8946C179.774 55.8946 178.139 50.4106 177.598 49.7731C177.338 49.4654 188.978 53.1601 193 45.5C197.5 53.5 196.934 65.6575 196.934 65.6575C196.934 65.6575 193.555 83.7545 186.801 88.2678C197.797 71.9658 188.348 70.4125 186.202 72.8304L183.84 78.82L181.96 83.5897L182.552 77.6953L179.401 76.0798L179.415 76.0102H179.408L182.351 62.496C181.978 62.4704 181.613 62.4337 181.251 62.3934C181.119 62.3788 180.991 62.3605 180.859 62.3422C180.636 62.3128 180.413 62.2835 180.194 62.2506C180.033 62.2249 179.872 62.1956 179.711 62.17C179.536 62.137 179.36 62.1077 179.185 62.0711C179.002 62.0344 178.823 61.9978 178.647 61.9575C178.512 61.9282 178.38 61.8952 178.245 61.8623C178.04 61.8146 177.836 61.7633 177.634 61.7121C177.569 61.6937 177.506 61.6754 177.441 61.6571C167.904 59.0378 163.202 51.5792 163.202 51.5792L164.434 58.3674C151.026 40.5671 142 49 141 50.4509C141.523 46.4175 151.26 39.6146 161.217 50.4509L161.228 50.4545Z" fill="#B2B2B2"/>
</g>
<path d="M190.516 79.9483C190.516 79.9483 190.125 77.3839 188.739 77.3546C186.798 77.318 186.033 79.5307 186.033 79.5307L183.697 85.414C183.697 85.414 187.653 85.5496 187.759 79.4904C187.781 78.2412 189.664 78.406 190.516 79.9483Z" fill="#672B3A"/>
<path d="M147.501 87.7623L162.559 89.2239C162.559 89.2239 161.454 99.4008 153.516 98.3567C152.646 98.2432 148.137 96.9646 148.137 96.9646C149.651 93.6676 147.863 88.4107 147.501 87.7659V87.7623Z" fill="#672B3A"/>
<path d="M150.456 88.3924C150.404 88.2715 150.357 88.1469 150.306 88.026L161.718 89.1324C161.718 89.1324 161.242 90.4951 158.902 90.3852C156.968 90.2936 154.719 90.2534 153.256 90.1288C151.629 89.9896 151.073 89.9053 150.456 88.3924Z" fill="white"/>
<path d="M151.479 86.9234C153.231 87.0369 155.735 86.8391 157.132 87.0772C161.275 87.7879 162.431 89.1287 162.683 89.2386L147.066 87.7256C147.066 87.7256 147 86.6669 148.174 86.3958C148.766 86.2566 150.225 86.8428 151.479 86.9234Z" fill="#FF6F67"/>
<path d="M160.957 94.2794C160.957 94.2794 160.803 94.5944 160.544 95.0597C159.206 97.0819 156.957 98.8073 153.516 98.3567C153.044 98.2944 151.52 97.8951 150.21 97.5398C152.832 94.5322 160.957 94.2831 160.957 94.2831V94.2794Z" fill="#E30613"/>
<path d="M161.125 93.8911C161.268 94.1072 159.469 100.185 153.797 99.9796C149.629 99.8294 147.899 98.5875 147.899 98.5875C146.441 97.9025 148.678 94.8472 148.678 94.8472C148.678 94.8472 148.656 96.4298 148.163 96.9427C148.163 96.9427 152.744 97.8512 153.615 97.9684C153.801 97.9941 153.988 98.0124 154.167 98.0234C157.571 98.2432 159.758 96.1917 161.129 93.8947" fill="#FF6F67"/>
<path d="M13.9167 75.2592C17.3721 70.2001 21.7783 67.4745 25.6944 67.4342C26.678 67.2621 28.477 67.742 28.477 67.742L32.6126 69.2842C33.9765 69.7934 35.216 70.7056 36.2545 72.0427C36.4117 72.2479 36.5616 72.4604 36.7079 72.6802C36.7518 72.7498 36.7956 72.8194 36.8395 72.889C36.9383 73.0428 37.0333 73.204 37.1247 73.3652C37.1723 73.4458 37.2162 73.5264 37.26 73.6107C37.3478 73.7755 37.4319 73.944 37.5123 74.1162C37.5489 74.1931 37.5855 74.2664 37.622 74.347C37.7317 74.5888 37.8378 74.8379 37.9328 75.0907C37.9328 75.0943 37.9365 75.1017 37.9401 75.1053C38.0389 75.3654 38.1303 75.6292 38.2144 75.9003C38.24 75.9845 38.2656 76.0724 38.2912 76.1567C38.3497 76.3472 38.4009 76.5414 38.4521 76.7355C38.4777 76.8344 38.5032 76.9333 38.5252 77.0323C38.5727 77.2301 38.613 77.4279 38.6532 77.6294C38.6715 77.721 38.6897 77.8125 38.708 77.9041C38.7592 78.1825 38.8067 78.4646 38.8433 78.7504C38.8433 78.7614 38.847 78.7724 38.8506 78.787C38.8872 79.0581 38.9164 79.3292 38.942 79.6039C38.9493 79.6845 38.953 79.7688 38.9603 79.8494C38.9749 80.0435 38.9932 80.2377 39.0042 80.4319C39.0042 80.4428 39.0042 80.4502 39.0042 80.4612C39.0042 80.4831 39.0042 80.5088 39.0042 80.5308C39.0225 80.9191 39.0298 81.3111 39.0298 81.7067C39.0298 81.7507 39.0298 81.7946 39.0298 81.8422C39.0298 81.8716 39.0298 81.8972 39.0298 81.9265C39.0261 82.2855 39.0152 82.6445 38.9932 83.0072C38.9932 83.0292 38.9932 83.0512 38.9932 83.0695C38.9932 83.1318 38.9823 83.194 38.9786 83.2563C38.9603 83.5164 38.942 83.7802 38.9164 84.0403C38.9128 84.0952 38.9091 84.1502 38.9018 84.2088C38.8945 84.2637 38.8872 84.3223 38.8799 84.3773C38.8543 84.6081 38.825 84.8389 38.7921 85.0733C38.7812 85.1466 38.7738 85.2199 38.7665 85.2931C38.7629 85.3224 38.7555 85.3518 38.7519 85.3847C38.7117 85.6485 38.6678 85.9122 38.6203 86.1797C38.6129 86.2273 38.6056 86.2786 38.5947 86.3262C38.5947 86.3335 38.5947 86.3409 38.591 86.3445C38.5325 86.6596 38.4703 86.971 38.4009 87.286C38.4009 87.3007 38.3972 87.3117 38.3936 87.3263C38.3753 87.4069 38.3533 87.4875 38.3351 87.5681C38.2839 87.7879 38.2327 88.004 38.1778 88.2238C38.1705 88.2531 38.1632 88.2861 38.1559 88.3154C38.134 88.407 38.1047 88.4949 38.0828 88.5865C38.0316 88.777 37.9804 88.9638 37.9255 89.1543C37.9109 89.202 37.8999 89.2496 37.8853 89.2935C37.8597 89.3741 37.8341 89.4547 37.8085 89.5353C37.7537 89.7185 37.6951 89.9053 37.633 90.0885C37.6147 90.1508 37.5964 90.213 37.5745 90.2717C37.5526 90.3376 37.527 90.4035 37.505 90.4695C37.4392 90.66 37.3734 90.8468 37.3039 91.0336C37.2783 91.1069 37.2527 91.1838 37.2235 91.2571C37.2052 91.3047 37.1832 91.356 37.165 91.4036C37.0882 91.6088 37.0077 91.8103 36.9236 92.0154C36.8907 92.096 36.8615 92.1803 36.8249 92.2609C36.8139 92.2902 36.7993 92.3158 36.7883 92.3451C36.653 92.6675 36.5141 92.9862 36.3678 93.3013C36.2143 93.6383 36.0497 93.9717 35.8815 94.2977C35.8632 94.3343 35.8449 94.371 35.8267 94.4076C35.7974 94.4625 35.7682 94.5138 35.7389 94.5688C35.5817 94.8692 35.4208 95.1659 35.2526 95.459C35.2233 95.5103 35.1977 95.5616 35.1685 95.6128C35.1575 95.6312 35.1466 95.6495 35.1356 95.6678C34.8979 96.0744 34.6493 96.4774 34.3896 96.873C34.364 96.9133 34.3421 96.9536 34.3165 96.9939C34.2361 97.1185 34.152 97.2394 34.0715 97.3603C33.8302 97.712 33.5852 98.049 33.3329 98.3787C33.2744 98.4556 33.2196 98.5289 33.161 98.6058C33.1062 98.6754 33.055 98.7487 33.0002 98.8146C32.9087 98.9282 32.8173 99.0308 32.7259 99.1407C32.5577 99.3495 32.3859 99.5546 32.214 99.7488C32.0787 99.9026 31.9434 100.046 31.8081 100.192C31.6363 100.379 31.4608 100.562 31.2852 100.738C31.1463 100.877 31.0074 101.013 30.8648 101.145C30.6892 101.313 30.5101 101.474 30.3346 101.632C30.1919 101.756 30.0493 101.881 29.9067 101.998C29.7276 102.148 29.5447 102.291 29.3619 102.43C29.2778 102.496 29.1937 102.57 29.1096 102.632C29.0365 102.683 28.9633 102.731 28.8902 102.782C28.7769 102.863 28.6635 102.94 28.5502 103.017C28.3637 103.141 28.1735 103.262 27.987 103.379C27.8773 103.445 27.7677 103.515 27.6543 103.581C27.6031 103.61 27.5483 103.647 27.4971 103.676C27.4093 103.724 27.3252 103.76 27.2375 103.808C27.0144 103.929 26.7877 104.042 26.5647 104.145C26.4988 104.174 26.4367 104.214 26.3709 104.244C26.2868 104.28 26.2027 104.31 26.1186 104.343C25.9577 104.409 25.7968 104.475 25.6359 104.533C25.5591 104.562 25.4823 104.595 25.4092 104.625C25.3178 104.658 25.2227 104.68 25.1313 104.709C25.0033 104.749 24.8753 104.79 24.7474 104.826C24.6815 104.845 24.6157 104.87 24.5499 104.885C24.4219 104.918 24.294 104.94 24.1696 104.969C24.0709 104.991 23.9758 105.013 23.8771 105.031C23.8405 105.039 23.804 105.05 23.7674 105.053C23.5188 105.097 23.2738 105.13 23.0288 105.152C23.0288 105.152 23.0142 105.152 23.0068 105.152C22.7801 105.174 22.5498 105.185 22.3267 105.189C22.2829 105.189 22.239 105.189 22.1914 105.189C22.111 105.189 22.0342 105.185 21.9538 105.182C21.8514 105.182 21.749 105.182 21.6466 105.174C21.5442 105.167 21.4418 105.152 21.3395 105.141C21.2663 105.134 21.1896 105.127 21.1164 105.116C21.0762 105.112 21.0323 105.108 20.9921 105.101C20.7764 105.068 20.5606 105.028 20.3486 104.976C20.3412 104.976 20.3339 104.973 20.3266 104.969C20.2974 104.962 20.2718 104.951 20.2425 104.943C20.067 104.899 19.8915 104.852 19.7196 104.793C19.6319 104.764 19.5441 104.735 19.46 104.702C19.46 104.702 16.0156 103.705 15.6536 103.577C14.1763 103.057 12.849 102.013 11.7374 100.577C7.29839 94.8545 8.27467 83.5201 13.9167 75.2628V75.2592Z" fill="url(#paint13_linear_593_2450)"/>
<path d="M13.0319 98.6754C11.8947 97.2101 11.167 95.3161 10.827 93.195C10.8197 93.1437 10.8123 93.0961 10.805 93.0448C10.7831 92.9056 10.7648 92.7664 10.7465 92.6272C10.7465 92.6125 10.7465 92.5979 10.7429 92.5832C10.7063 92.2938 10.6807 92.0007 10.6588 91.704C10.6588 91.6601 10.6515 91.6161 10.6478 91.5721C10.6405 91.4329 10.6332 91.2901 10.6259 91.1509C10.6259 91.0922 10.6222 91.0373 10.6185 90.9787C10.6039 90.5354 10.6039 90.0848 10.6185 89.6306C10.6185 89.5609 10.6222 89.4913 10.6259 89.4217C10.6332 89.2862 10.6368 89.1507 10.6478 89.0151C10.6515 88.9418 10.6588 88.8686 10.6624 88.7916C10.6807 88.5572 10.699 88.3227 10.7246 88.0883C10.7319 88.004 10.7392 87.9234 10.7502 87.8392C10.7648 87.7146 10.7795 87.5901 10.7977 87.4655C10.8087 87.3703 10.8233 87.275 10.8379 87.1761C10.8562 87.0552 10.8708 86.9343 10.8928 86.8134C10.9111 86.6852 10.9367 86.5607 10.9586 86.4324C10.9879 86.2639 11.0208 86.0954 11.0537 85.9306C11.0756 85.8097 11.1012 85.6924 11.1268 85.5715C11.1487 85.4616 11.1743 85.3554 11.1963 85.2455C11.2255 85.1173 11.2548 84.9927 11.284 84.8645C11.306 84.7693 11.3279 84.674 11.3535 84.5788C11.4047 84.3736 11.4596 84.1685 11.5181 83.9633C11.5437 83.8754 11.5693 83.7875 11.5949 83.6996C11.6351 83.5567 11.6789 83.4175 11.7228 83.2783C11.7521 83.1904 11.7777 83.0988 11.8069 83.0109C11.8618 82.8387 11.9203 82.6628 11.9824 82.4907C12.0044 82.4284 12.0263 82.3661 12.0483 82.3038C12.1214 82.1023 12.1945 81.9009 12.2713 81.703C12.3006 81.6261 12.3298 81.5492 12.3627 81.4722C12.4249 81.3147 12.487 81.1572 12.5529 81.0033C12.5821 80.9337 12.6114 80.8641 12.6406 80.7945C12.732 80.5784 12.8271 80.3659 12.9258 80.1498C12.9478 80.1058 12.9697 80.0582 12.9917 80.0142C13.0758 79.8384 13.1599 79.6625 13.244 79.4904C13.2769 79.4208 13.3134 79.3548 13.3463 79.2852C13.4341 79.113 13.5255 78.9409 13.6169 78.7687C13.6425 78.7247 13.6644 78.6808 13.6864 78.6368C13.7997 78.4243 13.9204 78.2155 14.0411 78.0067C14.074 77.9517 14.1069 77.9005 14.1362 77.8455C14.2312 77.6843 14.3299 77.5231 14.4287 77.3656C14.4652 77.307 14.5018 77.2447 14.542 77.1861C14.6737 76.9809 14.8053 76.7795 14.9406 76.578C14.9662 76.5377 14.9918 76.5047 15.0137 76.4717C15.0539 76.4131 15.0978 76.3545 15.138 76.2959C20.0561 69.3282 27.051 67.643 30.8721 72.5703C32.2616 74.3616 33.0404 76.7868 33.2452 79.4904C33.2452 79.5197 33.2489 79.5526 33.2525 79.5819C33.2818 80.0069 33.2964 80.4355 33.3 80.8714C33.3 80.9008 33.3 80.9337 33.3 80.963C33.3 81.4026 33.2854 81.8496 33.2562 82.3002C33.2562 82.3185 33.2562 82.3405 33.2525 82.3588C33.2342 82.6482 33.2086 82.9376 33.1794 83.227C33.1794 83.2453 33.1757 83.2636 33.1721 83.2819C33.1209 83.7399 33.0587 84.2014 32.9819 84.6667C32.9783 84.6923 32.9746 84.718 32.9673 84.7436C32.8869 85.2089 32.7954 85.6741 32.6858 86.1394L32.6711 86.1943C32.4847 86.9929 32.2579 87.7915 31.9873 88.5828C31.8265 89.0627 31.6473 89.539 31.4572 90.0115L31.4498 90.0262C30.7917 91.6417 29.9653 93.2097 28.9707 94.6677C24.0453 101.877 16.9078 103.672 13.0355 98.6754H13.0319Z" fill="url(#paint14_linear_593_2450)"/>
<path d="M16.2189 93.3007C16.4663 93.3764 16.724 93.4532 16.9897 93.5281L18.3194 89.7769L18.8269 89.7997L18.8864 89.5896L17.5558 89.5293L16.2217 93.2983L16.2189 93.3007Z" fill="#BF5D00"/>
<path d="M19.9577 91.8192C19.8039 91.8227 19.6667 91.8173 19.5402 91.8077C19.7976 91.9936 20.1658 92.0837 20.7265 92.0673C21.681 92.0395 22.5574 91.3749 22.862 90.3097C23.7174 87.3656 18.0739 87.8241 19.6757 82.3051C20.5234 79.3863 22.7219 77.6763 24.9939 77.3643L25.6098 75.4319L25.965 75.4427L26.0359 75.2233L24.8461 75.1843L24.2303 77.1167C21.9582 77.4287 19.7597 79.1387 18.912 82.0575C17.3102 87.5766 22.9538 87.118 22.0984 90.0621C21.7886 91.1269 20.9122 91.7914 19.9629 91.8197L19.9577 91.8192Z" fill="#BF5D00"/>
<path d="M26.7255 77.4242L26.6413 77.5561C26.3232 77.2081 26.0088 76.937 25.7089 76.7172C26.0161 76.882 26.3598 77.1092 26.7255 77.4242Z" fill="#BF5D00"/>
<path d="M15.6133 77.0103C10.688 84.2198 9.83231 94.1145 13.7082 99.1113C14.1799 99.7195 14.6992 100.225 15.2586 100.635C14.4395 100.17 13.6863 99.5253 13.0318 98.6754C9.15952 93.6822 10.0115 83.7838 14.9369 76.5743C19.2625 70.244 25.2922 68.09 29.3217 71.0463C25.3177 68.7787 19.705 71.0243 15.617 77.0103H15.6133Z" fill="#BF5D00"/>
<path d="M23.259 79.4464C23.3066 79.3475 23.6028 79.0068 23.8953 78.7027C23.983 78.6954 24.4364 78.7357 25.0251 79.2449C24.7875 79.146 24.6229 79.1314 24.5717 79.1387C24.2792 79.4427 23.983 79.7798 23.9355 79.8823C23.7783 80.0802 23.3102 80.7689 23.2846 80.8055L22.7215 80.2047C22.8751 79.9813 23.1457 79.5893 23.259 79.4464Z" fill="#BF5D00"/>
<path d="M19.6171 94.1549C19.3468 94.1264 19.0809 94.08 18.8104 94.028L18.1152 96.1867L18.9497 96.2149L19.6147 94.1521L19.6171 94.1549Z" fill="#BF5D00"/>
<path d="M20.0555 96.4746L18.884 96.4348L19.6171 94.1549C18.7033 94.0593 17.7805 93.7912 16.9854 93.5458L18.3195 89.7768L19.6502 89.8371L19.2616 91.1751C19.2491 91.2233 19.2367 91.3235 19.2194 91.4466C19.4629 91.8808 19.8819 92.0901 20.7215 92.0668C21.6759 92.0389 22.5524 91.3744 22.857 90.3091C23.7124 87.365 18.0665 87.8207 19.6706 82.3045C20.5183 79.3857 22.7168 77.6757 24.9889 77.3637L25.6047 75.4314L26.7945 75.4703L26.194 77.3521C28.2526 77.4668 29.2381 78.3701 29.2907 78.4167L27.8745 82.3339L26.5824 82.2513C26.5944 82.2082 26.8288 81.4092 26.8816 81.1621C26.9277 81.0625 27.0026 80.6173 27.0514 80.1982C26.9879 80.1037 26.4699 79.5782 25.0931 79.6174C24.2169 79.6424 23.264 80.1852 22.911 81.3992C21.9615 84.667 27.653 83.9843 25.9772 89.7536C25.1728 92.5232 23.0618 94.057 20.7829 94.1994L20.0475 96.4764L20.0555 96.4746Z" fill="url(#paint15_radial_593_2450)"/>
<path d="M17.7853 93.4185L17.8474 93.3196C17.8803 93.3526 17.9206 93.3855 17.9535 93.4185C17.895 93.4185 17.8401 93.4185 17.7816 93.4185H17.7853Z" fill="#C46812"/>
<path d="M11.7337 100.573C16.1728 106.295 24.3415 104.24 29.9872 95.9828C35.6292 87.7256 36.6055 76.3912 32.1665 70.669C27.7274 64.9468 19.5587 67.002 13.913 75.2592C8.27099 83.5164 7.29471 94.8509 11.7337 100.573ZM30.8684 72.5703C34.7443 77.5671 33.8924 87.4619 28.967 94.6714C24.0416 101.881 16.9041 103.676 13.0318 98.6791C9.15954 93.6859 10.0115 83.7875 14.9369 76.578C19.8622 69.3722 26.9961 67.5771 30.872 72.5703" fill="url(#paint16_linear_593_2450)"/>
<path d="M34.9015 87.6304C34.9418 87.5278 34.9783 87.4215 35.0185 87.319L38.0535 88.6634C38.0096 88.8209 37.9657 88.9821 37.9218 89.1397C37.9072 89.1873 37.8962 89.2349 37.8816 89.2789C37.856 89.3595 37.8304 89.4401 37.8048 89.5207C37.75 89.7038 37.6915 89.8907 37.6293 90.0738C37.611 90.1361 37.5927 90.1984 37.5708 90.257C37.5489 90.3229 37.5233 90.3889 37.5013 90.4548C37.4355 90.6453 37.3697 90.8321 37.3002 91.019C37.2746 91.0922 37.249 91.1692 37.2198 91.2424C37.2015 91.2901 37.1796 91.3413 37.1613 91.389C37.0845 91.5941 37.0041 91.7956 36.9199 92.0007C36.887 92.0813 36.8578 92.1656 36.8212 92.2462C36.8102 92.2755 36.7956 92.3011 36.7847 92.3305C36.6494 92.6528 36.5104 92.9715 36.3641 93.2866C36.28 93.4734 36.1923 93.6566 36.1045 93.8361L33.2159 92.5576C33.9728 91.0007 34.5359 89.3595 34.8979 87.6267L34.9015 87.6304Z" fill="url(#paint17_linear_593_2450)"/>
<path d="M32.4553 93.9863L35.3513 95.2685C35.3184 95.3271 35.2892 95.3857 35.2526 95.448C35.2234 95.4993 35.1977 95.5506 35.1685 95.6018C35.1575 95.6202 35.1466 95.6385 35.1356 95.6568C34.8979 96.0634 34.6493 96.4664 34.3896 96.862C34.3641 96.9023 34.3421 96.9426 34.3165 96.9829C34.2361 97.1038 34.152 97.2284 34.0715 97.3493C34.0606 97.3676 34.0459 97.3822 34.035 97.4006L31.0549 96.0817C31.5668 95.404 32.0348 94.7043 32.4553 93.9863Z" fill="url(#paint18_linear_593_2450)"/>
<path d="M36.2472 82.3221L38.953 83.5201C38.9384 83.6886 38.9274 83.8571 38.9128 84.0256C38.9091 84.0806 38.9055 84.1355 38.8981 84.1941C38.8908 84.2491 38.8835 84.3077 38.8762 84.3626C38.8506 84.5934 38.8214 84.8242 38.7885 85.0587C38.7775 85.1319 38.7702 85.2052 38.7629 85.2785C38.7592 85.3078 38.7519 85.3371 38.7482 85.3701C38.7117 85.6118 38.6714 85.8573 38.6276 86.0991L35.7901 84.8425C35.9949 84.011 36.1448 83.1757 36.2472 82.3258V82.3221Z" fill="url(#paint19_linear_593_2450)"/>
<path d="M29.7458 97.7229L32.7808 99.0674C32.7625 99.0894 32.7405 99.1113 32.7222 99.1333C32.5504 99.3385 32.3822 99.5473 32.2067 99.7414C32.1665 99.7854 32.1262 99.8294 32.086 99.8733C31.9909 99.9796 31.8959 100.082 31.8008 100.185C31.629 100.372 31.4534 100.555 31.2779 100.731C31.139 100.87 31 101.005 30.8574 101.137C30.6819 101.306 30.5027 101.467 30.3272 101.624C30.1846 101.749 30.042 101.874 29.8994 101.991C29.7202 102.141 29.5374 102.284 29.3546 102.423C29.2705 102.489 29.1864 102.562 29.1023 102.625C29.0292 102.676 28.956 102.723 28.8829 102.775C28.7695 102.855 28.6562 102.932 28.5428 103.009C28.3563 103.134 28.1662 103.255 27.9797 103.372C27.87 103.438 27.7603 103.507 27.647 103.573C27.5958 103.603 27.5409 103.639 27.4897 103.669C27.402 103.716 27.3179 103.753 27.2301 103.8C27.0071 103.921 26.7804 104.035 26.5573 104.137C26.4915 104.167 26.4294 104.207 26.3635 104.236C26.2794 104.273 26.1953 104.302 26.1112 104.335C25.9504 104.401 25.7895 104.467 25.6286 104.526C25.5518 104.555 25.475 104.588 25.4019 104.617C25.3105 104.65 25.2154 104.672 25.124 104.702C24.996 104.742 24.868 104.782 24.74 104.819C24.6742 104.837 24.6084 104.863 24.5426 104.877C24.4146 104.91 24.2866 104.932 24.1623 104.962C24.0636 104.984 23.9685 105.006 23.8698 105.024C23.8332 105.031 23.7966 105.042 23.7601 105.046C23.5114 105.09 23.2665 105.123 23.0215 105.145C23.0215 105.145 23.0068 105.145 22.9995 105.145C22.7728 105.167 22.5424 105.178 22.3194 105.182C22.2755 105.182 22.2316 105.182 22.1841 105.182C22.1037 105.182 22.0269 105.178 21.9464 105.174C21.8441 105.174 21.7417 105.174 21.6393 105.167C21.5369 105.16 21.4345 105.145 21.3321 105.134C21.259 105.127 21.1822 105.119 21.1091 105.108C21.0689 105.105 21.025 105.101 20.9848 105.094C20.769 105.061 20.5533 105.02 20.3412 104.969C20.3339 104.969 20.3266 104.965 20.3193 104.962C20.29 104.954 20.2644 104.943 20.2352 104.936C20.1072 104.903 18.001 104.302 17.8767 104.266C25.3287 104.123 29.6105 97.8878 29.7422 97.7193L29.7458 97.7229Z" fill="url(#paint20_linear_593_2450)"/>
<path d="M43.1836 203.58L23.2445 197.425C23.2445 197.425 35.7901 192.513 41.0372 196.572C42.1634 197.945 43.8857 201.173 43.1836 203.58Z" fill="#006633"/>
<path d="M26.9595 188.688C26.656 188.519 26.2538 188.292 25.9503 188.124L29.8994 190.329C28.1638 189.362 27.1838 188.816 26.9595 188.692M27.2411 195.531C27.3252 195.751 27.402 196.059 27.4715 196.282C30.9927 197.443 32.8941 198.081 36.5616 199.348C37.3624 197.784 38.3131 197.436 40.4704 197.916C40.1158 196.923 39.7538 195.897 38.4667 195.11L20.7581 185.23C21.5113 185.739 23.0836 186.798 23.197 191.175C24.0563 191.718 26.3343 193.157 27.2411 195.531ZM21.493 190.384C21.4236 188.82 21.281 185.563 19.0505 184.277L40.1779 196.066C41.1323 196.707 41.5162 197.209 42.0574 198.498C42.4998 199.971 42.6059 200.784 42.6205 202.854C40.5216 202.133 39.1321 201.653 36.2691 200.7C32.9672 199.608 31.1536 199.019 27.5556 197.879C25.336 197.18 23.9977 196.758 21.0506 195.854C21.2188 194.674 21.5332 192.476 21.4894 190.384M19.7196 195.443L19.5075 196.648L20.8495 197.051C23.186 197.755 24.5974 198.183 27.3983 199.044C30.7696 200.088 32.7332 200.704 36.1813 201.81C38.452 202.546 39.8196 202.99 42.5876 203.913L43.882 204.349L43.9039 203.294C43.8601 201.363 43.7613 200.473 43.2714 199.03C42.7485 197.887 42.2731 197.191 41.337 196.59L17.767 183.556C19.1894 184.515 20.1474 185.966 20.2132 189.926C20.195 191.109 20.1657 192.732 19.7233 195.44" fill="url(#paint21_radial_593_2450)"/>
<path d="M19.9793 211.111L0.848263 194.135C0.848263 194.135 9.74826 182.101 17.6829 183.383C25.859 188.164 39.9257 195.901 39.9257 195.901C39.9257 195.901 34.3568 193.736 19.9829 211.111H19.9793Z" fill="#006633"/>
<path d="M29.5776 190.036L27.146 188.681L26.433 188.285L25.6067 187.823C22.25 185.951 21.1237 185.494 19.8805 185.486C17.3429 185.962 19.0688 190.091 22.0964 192.252C26.8389 195.641 33.428 194.201 33.1099 192.674C32.9636 191.978 31.6802 191.212 29.5776 190.036L31.8813 191.322L38.1266 194.806C35.9144 193.806 31.841 193.699 22.0379 204.287C19.5551 203.151 17.7341 203.147 15.5548 204.276C12.7832 201.781 11.4668 200.59 8.07356 197.509C8.98038 195.114 8.83413 193.381 7.5324 191.113C9.964 188.824 16.4251 182.742 20.418 184.926L18.7068 183.973L29.468 189.977L29.5557 190.025L39.8342 195.758L31.8776 191.318L29.574 190.032L29.5776 190.036Z" fill="url(#paint22_radial_593_2450)"/>
<path d="M0.851906 193.275C2.62898 191.329 3.57969 190.358 5.26535 188.761C7.75545 186.501 13.5803 181.204 17.427 183.259L18.7104 183.973C15.7815 182.647 12.0738 184.362 6.31111 189.699C4.51941 191.421 3.65646 192.311 1.91595 194.238C3.68571 195.843 4.96184 197 7.14479 198.971C9.8616 201.418 11.5363 202.927 14.2933 205.382C16.0448 206.943 17.3136 208.067 19.6209 210.097C21.1823 208.155 22.0415 207.144 23.6138 205.397C31.1938 197.205 36.3496 194.143 39.8416 195.762L41.125 196.476C39.8086 195.879 35.7974 194.066 24.6742 206.356C23.0105 208.225 22.2317 209.148 20.7142 211.053L19.9902 211.98L18.8896 211.027C17.1089 209.478 15.9315 208.452 13.5255 206.331C10.9659 204.067 9.51058 202.781 6.33305 199.931C4.60717 198.385 3.46998 197.359 1.07495 195.198L0.00724792 194.234L0.859226 193.275H0.851906Z" fill="url(#paint23_radial_593_2450)"/>
<path d="M24.0526 188.01C24.5645 188.355 25.2483 188.813 25.7602 189.161C26.4367 188.739 24.645 188.109 24.4731 188.069C24.2757 188.021 24.1367 188.018 24.0526 188.014M26.3562 190.128C25.8663 190.582 26.8974 191.098 27.5775 191.117C27.6287 191.117 27.6945 191.117 27.7457 191.117L26.3562 190.131M30.298 192.3L29.6727 192.505L28.9816 192.003C28.8792 191.93 28.7147 191.835 28.5904 191.853C26.4732 192.161 23.9868 190.296 25.3068 189.391C24.7656 189.014 24.0453 188.512 23.5005 188.138C23.1312 188.417 23.4932 188.853 23.6102 188.996C23.2665 188.966 22.8057 188.926 22.462 188.897C22.0891 188.417 21.6832 187.743 22.4547 187.424L22.2207 187.267L21.5186 186.79L22.0854 186.717L22.7948 187.182C22.9008 187.252 23.0544 187.333 23.1787 187.34C24.0124 187.365 25.4384 188.047 26.4184 188.706C27.4276 189.384 27.402 189.585 26.8096 189.886C27.2777 190.208 27.8993 190.637 28.3637 190.956C28.5648 190.791 28.5684 190.644 28.3856 190.406C30.3931 190.926 29.7641 191.435 29.5228 191.578C29.4789 191.604 29.4168 191.633 29.3692 191.655L29.5959 191.813L30.2943 192.304" fill="white"/>
<path d="M29.8226 190.282L28.1626 189.355L29.8994 190.325C29.8738 190.311 29.8482 190.296 29.8226 190.282Z" fill="white"/>
<path d="M29.5593 190.029L29.5376 190.014L29.5593 190.029Z" fill="white"/>
<path d="M39.8379 195.762L39.0006 195.293L39.8379 195.762Z" fill="white"/>
<path style="mix-blend-mode:multiply" opacity="0.4" d="M41.3407 196.594C42.2804 197.194 42.7521 197.89 43.275 199.033C43.765 200.477 43.8601 201.363 43.9076 203.297L43.8857 204.353L42.5912 203.917C41.5966 203.583 40.7849 203.316 40.0463 203.07C38.7226 200.887 37.3953 198.704 36.0643 196.52C39.0298 194.853 41.3407 196.594 41.3407 196.594Z" fill="url(#paint24_radial_593_2450)"/>
<path d="M248.162 67.8482L236.007 48.2968C236.007 48.2968 244.004 48.1576 247.361 58.7594C249.818 64.9212 248.158 67.8482 248.158 67.8482H248.162Z" fill="#006633"/>
<path d="M258.572 75.9076C258.049 75.054 257.409 74.2627 256.652 73.5447C256.228 73.1418 255.767 72.7644 255.266 72.4091C255.098 72.2919 254.926 72.1783 254.754 72.0647C254.74 71.9512 254.725 71.8376 254.703 71.724C254.67 71.5555 254.626 71.3943 254.575 71.2368C254.641 71.2844 254.703 71.3321 254.769 71.3797C254.678 71.2515 254.583 71.1269 254.491 70.9987C254.191 70.222 253.698 69.581 253.072 69.0974C251.347 66.8444 249.628 64.8919 247.77 63.7855C246.205 61.2431 244.121 57.8472 242.556 55.3048C244.783 55.6052 244.918 54.5538 244.414 53.2021C244.18 52.9383 243.931 52.6782 243.672 52.4291C243.247 52.0261 242.787 51.6488 242.286 51.2934C240.735 50.1944 238.955 49.4361 237.031 48.9929L240.68 54.9238L245.624 62.9613L248.889 68.2695C248.498 68.383 248.132 68.5589 247.796 68.7787L247.69 68.6065L244.041 62.6755L239.097 54.6381L235.448 48.7071L234.706 47.4982C235.243 47.5715 235.77 47.6667 236.289 47.7839C238.212 48.2235 239.993 48.9855 241.543 50.0845C242.041 50.4362 242.501 50.8172 242.926 51.2202C243.832 52.1177 243.975 52.3229 244.812 53.5318C245.485 54.389 246.118 55.6455 246.578 56.3965L248.14 58.9389L249.445 61.0673L256.788 73.0062C256.506 72.5739 256.349 72.5776 256.137 72.5593C256.791 73.215 258.568 75.9039 258.568 75.9039L258.572 75.9076Z" fill="url(#paint25_radial_593_2450)"/>
<path d="M239.404 103.973C236.578 104.478 233.788 104.464 231.239 103.888C230.72 103.771 230.212 103.632 229.718 103.467L228.972 102.258L225.323 96.3272L220.379 88.2898L216.73 82.3588L215.988 81.1499C216.485 81.311 216.993 81.4539 217.513 81.5711C220.058 82.1463 222.848 82.161 225.674 81.6554C242.052 78.1935 250.359 62.91 244.842 53.5904L245.584 54.7993C245.65 54.9018 245.708 55.0118 245.767 55.118L256.875 73.1637C257.128 73.5813 258.565 75.9112 258.565 75.9112C262.049 81.5748 260.378 89.854 253.818 96.3785C249.719 100.456 244.498 103.064 239.393 103.98L239.404 103.973ZM250.37 69.1597C247.507 70.0096 238.87 85.6668 246.622 89.5536C249.628 91.0593 253.398 89.6928 255.208 86.4361C258.693 79.2156 253.171 68.3281 250.37 69.1597Z" fill="url(#paint26_radial_593_2450)"/>
<path d="M253.083 95.1659C259.025 89.2532 261.022 81.7323 258.736 76.1897L257.833 74.7097C260.016 80.2304 257.979 87.7036 252.092 93.5577C247.909 97.7193 242.556 100.35 237.353 101.21C236.439 100.459 234.537 98.8989 230.241 97.6497C229.901 97.5508 229.389 97.5361 229.104 97.32L223.89 88.8393C226.358 88.3008 227.345 86.9746 227.093 84.5312C232.296 83.6703 237.649 81.04 241.832 76.8784C247.785 70.9584 249.708 63.5914 247.412 58.045C247.222 57.5798 246.301 56.0119 245.843 55.2426C248.981 60.8878 247.237 68.9106 240.845 75.2665C236.75 79.3402 231.524 81.9521 226.42 82.8643C223.593 83.3699 220.803 83.3552 218.259 82.7801L221.904 88.7111L226.848 96.7485L230.497 102.679C233.042 103.255 235.832 103.269 238.662 102.764C243.767 101.848 248.988 99.2396 253.087 95.1622L253.083 95.1659Z" fill="#006633"/>
<path d="M255.208 86.4361C258.693 79.2156 253.171 68.3281 250.37 69.1597C247.507 70.0096 238.871 85.6668 246.622 89.5536C249.628 91.0593 253.398 89.6928 255.208 86.4361Z" fill="#006633"/>
<path d="M252.217 82.9339L251.069 81.0656C250.725 81.8715 250.531 82.476 250.626 82.9962C250.67 83.227 250.926 83.8314 251.526 83.5494C251.837 83.4028 252.096 83.0841 252.217 82.9339ZM250.966 78.4976C251.5 76.8234 250.846 76.3692 250.462 76.556C250.279 76.6439 250.125 76.8344 250.023 76.959L250.97 78.4976M248.001 76.0761C248.253 75.6585 248.487 75.2408 248.707 74.8196L249.182 75.5889L249.346 75.8563C251.332 72.9439 251.99 75.849 252.1 76.4607C252.345 77.8089 251.884 79.1094 251.687 79.6625L252.908 81.6517C253.219 80.7176 253.266 79.9116 253.051 79.0434C253.288 78.82 253.603 78.5196 253.84 78.2961C254.03 78.765 254.568 80.4685 253.614 82.802L253.771 83.0585L254.246 83.8278C254.027 84.2491 253.793 84.6704 253.541 85.0843L253.069 84.315L252.915 84.0659C250.93 86.7182 249.387 85.3078 249.24 83.6849C249.138 82.5419 249.734 81.2671 250.367 79.919L249.314 78.2082C248.977 79.0178 248.813 79.7175 248.827 80.2853C248.462 80.4941 247.972 80.7689 247.606 80.974C247.547 79.9483 247.697 78.9445 248.63 77.0945L248.476 76.8454L248.005 76.0761" fill="white"/>
<rect x="-138" y="137" width="466" height="85" fill="url(#paint27_linear_593_2450)"/>
</g>
<defs>
<radialGradient id="paint0_radial_593_2450" cx="0" cy="0" r="1" gradientUnits="userSpaceOnUse" gradientTransform="translate(87.7547 -0.162621) rotate(-167.818) scale(62.0127 62.1182)">
<stop stop-color="#95C11F"/>
<stop offset="0.33" stop-color="#84B632"/>
<stop offset="0.79" stop-color="#69A454"/>
<stop offset="1" stop-color="#5B9B64"/>
</radialGradient>
<radialGradient id="paint1_radial_593_2450" cx="0" cy="0" r="1" gradientUnits="userSpaceOnUse" gradientTransform="translate(98.9738 1.06011) rotate(-157.863) scale(62.0239 62.1069)">
<stop stop-color="#95C11F"/>
<stop offset="0.33" stop-color="#84B632"/>
<stop offset="0.79" stop-color="#69A454"/>
<stop offset="1" stop-color="#5B9B64"/>
</radialGradient>
<radialGradient id="paint2_radial_593_2450" cx="0" cy="0" r="1" gradientUnits="userSpaceOnUse" gradientTransform="translate(238.249 113.409) rotate(180) scale(103.509 103.703)">
<stop stop-color="#FF984A"/>
<stop offset="0.4" stop-color="#FF984A"/>
<stop offset="1" stop-color="#B83D18"/>
</radialGradient>
<radialGradient id="paint3_radial_593_2450" cx="0" cy="0" r="1" gradientUnits="userSpaceOnUse" gradientTransform="translate(268.203 109.828) rotate(-157.162) scale(32.7608 32.8036)">
<stop stop-color="#DEC11F"/>
<stop offset="0.19" stop-color="#CABB29"/>
<stop offset="0.59" stop-color="#97AC44"/>
<stop offset="1" stop-color="#5B9B64"/>
</radialGradient>
<radialGradient id="paint4_radial_593_2450" cx="0" cy="0" r="1" gradientUnits="userSpaceOnUse" gradientTransform="translate(268.203 109.828) rotate(-157.162) scale(32.7608 32.8036)">
<stop stop-color="#95C11F"/>
<stop offset="0.34" stop-color="#84B632"/>
<stop offset="1" stop-color="#5B9B64"/>
</radialGradient>
<radialGradient id="paint5_radial_593_2450" cx="0" cy="0" r="1" gradientUnits="userSpaceOnUse" gradientTransform="translate(234.87 167.554) rotate(180) scale(52.5517 52.6499)">
<stop stop-color="#95C11F"/>
<stop offset="0.33" stop-color="#84B632"/>
<stop offset="0.79" stop-color="#69A454"/>
<stop offset="1" stop-color="#5B9B64"/>
</radialGradient>
<radialGradient id="paint6_radial_593_2450" cx="0" cy="0" r="1" gradientUnits="userSpaceOnUse" gradientTransform="translate(247.598 151.384) rotate(177.295) scale(81.0657 81.2165)">
<stop stop-color="#95C11F"/>
<stop offset="0.34" stop-color="#84B632"/>
<stop offset="1" stop-color="#5B9B64"/>
</radialGradient>
<radialGradient id="paint7_radial_593_2450" cx="0" cy="0" r="1" gradientUnits="userSpaceOnUse" gradientTransform="translate(133.25 62.4188) rotate(-175.382) scale(91.614 71.5782)">
<stop offset="0.03" stop-color="#FFFFCB"/>
<stop offset="0.45" stop-color="#FFCCCB"/>
<stop offset="0.58" stop-color="#FFC5C4"/>
<stop offset="0.77" stop-color="#FFB2B1"/>
<stop offset="0.99" stop-color="#FF9393"/>
<stop offset="1" stop-color="#FF9292"/>
</radialGradient>
<radialGradient id="paint8_radial_593_2450" cx="0" cy="0" r="1" gradientUnits="userSpaceOnUse" gradientTransform="translate(117.555 29.8797) rotate(-175.381) scale(98.8074 98.9935)">
<stop offset="0.03" stop-color="#FFFFCB"/>
<stop offset="0.45" stop-color="#FFCCCB"/>
<stop offset="0.58" stop-color="#FFC5C4"/>
<stop offset="0.77" stop-color="#FFB2B1"/>
<stop offset="0.99" stop-color="#FF9393"/>
<stop offset="1" stop-color="#FF9292"/>
</radialGradient>
<radialGradient id="paint9_radial_593_2450" cx="0" cy="0" r="1" gradientUnits="userSpaceOnUse" gradientTransform="translate(135.912 67.9052) rotate(-174.881) scale(84.4376 65.9753)">
<stop offset="0.03" stop-color="#FFFFCB"/>
<stop offset="0.45" stop-color="#FFCCCB"/>
<stop offset="0.58" stop-color="#FFC5C4"/>
<stop offset="0.77" stop-color="#FFB2B1"/>
<stop offset="0.99" stop-color="#FF9393"/>
<stop offset="1" stop-color="#FF9292"/>
</radialGradient>
<radialGradient id="paint10_radial_593_2450" cx="0" cy="0" r="1" gradientUnits="userSpaceOnUse" gradientTransform="translate(121.77 37.3588) rotate(-174.88) scale(91.074 91.2453)">
<stop offset="0.03" stop-color="#FFFFCB"/>
<stop offset="0.45" stop-color="#FFCCCB"/>
<stop offset="0.58" stop-color="#FFC5C4"/>
<stop offset="0.77" stop-color="#FFB2B1"/>
<stop offset="0.99" stop-color="#FF9393"/>
<stop offset="1" stop-color="#FF9292"/>
</radialGradient>
<radialGradient id="paint11_radial_593_2450" cx="0" cy="0" r="1" gradientUnits="userSpaceOnUse" gradientTransform="translate(145.901 74.5222) rotate(-168.709) scale(22.7233 22.7625)">
<stop offset="0.33" stop-color="white"/>
<stop offset="0.45" stop-color="#FFE1E2"/>
<stop offset="1" stop-color="#FF5459"/>
</radialGradient>
<radialGradient id="paint12_radial_593_2450" cx="0" cy="0" r="1" gradientUnits="userSpaceOnUse" gradientTransform="translate(166.367 76.2615) rotate(11.2905) scale(21.9773 22.0153)">
<stop offset="0.33" stop-color="white"/>
<stop offset="0.45" stop-color="#FFE1E2"/>
<stop offset="1" stop-color="#FF5459"/>
</radialGradient>
<linearGradient id="paint13_linear_593_2450" x1="38.0781" y1="88.6366" x2="17.6273" y2="85.2376" gradientUnits="userSpaceOnUse">
<stop stop-color="#FCEA10"/>
<stop offset="0.04" stop-color="#FBE30E"/>
<stop offset="0.32" stop-color="#F7C008"/>
<stop offset="0.58" stop-color="#F5A603" stop-opacity="0.99"/>
<stop offset="0.82" stop-color="#F39700" stop-opacity="0.99"/>
<stop offset="1" stop-color="#F39200" stop-opacity="0.99"/>
</linearGradient>
<linearGradient id="paint14_linear_593_2450" x1="25.6554" y1="122.517" x2="17.8098" y2="44.614" gradientUnits="userSpaceOnUse">
<stop stop-color="#FCEA10"/>
<stop offset="0.11" stop-color="#F8CE11"/>
<stop offset="0.32" stop-color="#F3A115"/>
<stop offset="0.52" stop-color="#EE7D17" stop-opacity="0.99"/>
<stop offset="0.7" stop-color="#EB6319" stop-opacity="0.99"/>
<stop offset="0.87" stop-color="#E9531A" stop-opacity="0.99"/>
<stop offset="1" stop-color="#E94E1B" stop-opacity="0.99"/>
</linearGradient>
<radialGradient id="paint15_radial_593_2450" cx="0" cy="0" r="1" gradientUnits="userSpaceOnUse" gradientTransform="translate(19.294 97.9043) rotate(157.803) scale(42.0302 41.9656)">
<stop offset="0.46" stop-color="#FFDE00"/>
<stop offset="0.55" stop-color="#FDC900"/>
<stop offset="0.73" stop-color="#FA9400"/>
<stop offset="0.84" stop-color="#F87200"/>
</radialGradient>
<linearGradient id="paint16_linear_593_2450" x1="26.0744" y1="102.118" x2="17.812" y2="69.164" gradientUnits="userSpaceOnUse">
<stop stop-color="#FCEA10"/>
<stop offset="0.11" stop-color="#F8CE11"/>
<stop offset="0.32" stop-color="#F3A115"/>
<stop offset="0.52" stop-color="#EE7D17" stop-opacity="0.99"/>
<stop offset="0.7" stop-color="#EB6319" stop-opacity="0.99"/>
<stop offset="0.87" stop-color="#E9531A" stop-opacity="0.99"/>
<stop offset="1" stop-color="#E94E1B" stop-opacity="0.99"/>
</linearGradient>
<linearGradient id="paint17_linear_593_2450" x1="-530.757" y1="458.335" x2="-504.541" y2="441.376" gradientUnits="userSpaceOnUse">
<stop stop-color="#FCEA10"/>
<stop offset="0.11" stop-color="#F8CE11"/>
<stop offset="0.32" stop-color="#F3A115"/>
<stop offset="0.52" stop-color="#EE7D17" stop-opacity="0.99"/>
<stop offset="0.7" stop-color="#EB6319" stop-opacity="0.99"/>
<stop offset="0.87" stop-color="#E9531A" stop-opacity="0.99"/>
<stop offset="1" stop-color="#E94E1B" stop-opacity="0.99"/>
</linearGradient>
<linearGradient id="paint18_linear_593_2450" x1="-529.113" y1="460.877" x2="-502.898" y2="443.918" gradientUnits="userSpaceOnUse">
<stop stop-color="#FCEA10"/>
<stop offset="0.11" stop-color="#F8CE11"/>
<stop offset="0.32" stop-color="#F3A115"/>
<stop offset="0.52" stop-color="#EE7D17" stop-opacity="0.99"/>
<stop offset="0.7" stop-color="#EB6319" stop-opacity="0.99"/>
<stop offset="0.87" stop-color="#E9531A" stop-opacity="0.99"/>
<stop offset="1" stop-color="#E94E1B" stop-opacity="0.99"/>
</linearGradient>
<linearGradient id="paint19_linear_593_2450" x1="-533.105" y1="454.708" x2="-506.893" y2="437.749" gradientUnits="userSpaceOnUse">
<stop stop-color="#FCEA10"/>
<stop offset="0.11" stop-color="#F8CE11"/>
<stop offset="0.32" stop-color="#F3A115"/>
<stop offset="0.52" stop-color="#EE7D17" stop-opacity="0.99"/>
<stop offset="0.7" stop-color="#EB6319" stop-opacity="0.99"/>
<stop offset="0.87" stop-color="#E9531A" stop-opacity="0.99"/>
<stop offset="1" stop-color="#E94E1B" stop-opacity="0.99"/>
</linearGradient>
<linearGradient id="paint20_linear_593_2450" x1="-486.737" y1="-765.019" x2="-462.684" y2="-724.451" gradientUnits="userSpaceOnUse">
<stop stop-color="#FCEA10"/>
<stop offset="0.11" stop-color="#F8CE11"/>
<stop offset="0.32" stop-color="#F3A115"/>
<stop offset="0.52" stop-color="#EE7D17" stop-opacity="0.99"/>
<stop offset="0.7" stop-color="#EB6319" stop-opacity="0.99"/>
<stop offset="0.87" stop-color="#E9531A" stop-opacity="0.99"/>
<stop offset="1" stop-color="#E94E1B" stop-opacity="0.99"/>
</linearGradient>
<radialGradient id="paint21_radial_593_2450" cx="0" cy="0" r="1" gradientUnits="userSpaceOnUse" gradientTransform="translate(29.4146 195.016) rotate(143.189) scale(13.037 13.0438)">
<stop stop-color="#95C11F"/>
<stop offset="0.34" stop-color="#84B632"/>
<stop offset="1" stop-color="#5B9B64"/>
</radialGradient>
<radialGradient id="paint22_radial_593_2450" cx="0" cy="0" r="1" gradientUnits="userSpaceOnUse" gradientTransform="translate(14.1706 217.253) rotate(82.963) scale(41.3655 41.2907)">
<stop stop-color="#DEC11F"/>
<stop offset="0.19" stop-color="#CABB29"/>
<stop offset="0.59" stop-color="#97AC44"/>
<stop offset="1" stop-color="#5B9B64"/>
</radialGradient>
<radialGradient id="paint23_radial_593_2450" cx="0" cy="0" r="1" gradientUnits="userSpaceOnUse" gradientTransform="translate(9.57703 213.193) rotate(-142.438) scale(31.8119 31.8272)">
<stop stop-color="#DEC11F"/>
<stop offset="0.19" stop-color="#CABB29"/>
<stop offset="0.59" stop-color="#97AC44"/>
<stop offset="1" stop-color="#5B9B64"/>
</radialGradient>
<radialGradient id="paint24_radial_593_2450" cx="0" cy="0" r="1" gradientUnits="userSpaceOnUse" gradientTransform="translate(21.9475 197.764) rotate(162.99) scale(16.4863 16.5118)">
<stop offset="0.33" stop-color="#A2C7BF"/>
<stop offset="0.41" stop-color="#8DC0BB"/>
<stop offset="0.59" stop-color="#57B1B3"/>
<stop offset="0.84" stop-color="#0097A6"/>
</radialGradient>
<radialGradient id="paint25_radial_593_2450" cx="0" cy="0" r="1" gradientUnits="userSpaceOnUse" gradientTransform="translate(246.695 61.7499) rotate(64.5315) scale(13.1213 13.1059)">
<stop stop-color="#95C11F"/>
<stop offset="0.34" stop-color="#84B632"/>
<stop offset="1" stop-color="#5B9B64"/>
</radialGradient>
<radialGradient id="paint26_radial_593_2450" cx="0" cy="0" r="1" gradientUnits="userSpaceOnUse" gradientTransform="translate(232.334 102.31) rotate(64.5315) scale(51.3024 51.2421)">
<stop stop-color="#95C11F"/>
<stop offset="0.33" stop-color="#84B632"/>
<stop offset="0.79" stop-color="#69A454"/>
<stop offset="1" stop-color="#5B9B64"/>
</radialGradient>
<linearGradient id="paint27_linear_593_2450" x1="160.5" y1="222" x2="160.5" y2="137" gradientUnits="userSpaceOnUse">
<stop stop-color="#131516"/>
<stop offset="1" stop-color="#373B3F" stop-opacity="0"/>
</linearGradient>
<clipPath id="clip0_593_2450">
<rect width="292" height="221" fill="white" transform="matrix(-1 0 0 1 292 0)"/>
</clipPath>
</defs>
</svg>
