<svg width="20" height="20" viewBox="0 0 20 20" fill="none" xmlns="http://www.w3.org/2000/svg">
<path d="M4.79175 7.70827C4.79175 7.70827 4.85787 7.17931 4.99011 6.45831M8.54175 7.70827C8.54175 7.70827 8.48071 7.1793 8.35864 6.45831M4.99011 6.45831C5.26444 4.96262 5.82332 2.64051 6.66675 2.49994C7.52612 2.35671 8.09009 4.87216 8.35864 6.45831M4.99011 6.45831H8.35864" stroke="#787F85" stroke-width="1.5" stroke-linecap="round"/>
<path d="M11.0417 12.9166H13.7501M16.6667 12.9166H15.2084M11.2501 17.2916C14.1528 16.5769 15.1023 15.6763 15.2084 12.9166M15.2084 12.9166H13.7501M13.7501 12.9166V11.4583M12.7084 15.2083C13.1717 16.3253 13.768 16.8491 16.4584 17.2916" stroke="#787F85" stroke-width="1.5" stroke-linecap="round"/>
<path opacity="0.5" d="M2.70825 10C2.75598 13.8448 3.75451 15.1716 8.74992 14.7917M8.74992 14.7917C8.1804 13.9781 7.29159 12.7083 7.29159 12.7083M8.74992 14.7917C8.1804 15.5239 7.29159 16.6667 7.29159 16.6667" stroke="#787F85" stroke-width="1.5" stroke-linecap="round"/>
<path opacity="0.5" d="M17.2917 10C17.244 6.15515 16.2455 4.82844 11.2501 5.20833M11.2501 5.20833C11.8196 6.02193 12.7084 7.29167 12.7084 7.29167M11.2501 5.20833C11.8196 4.4761 12.7084 3.33333 12.7084 3.33333" stroke="#787F85" stroke-width="1.5" stroke-linecap="round"/>
</svg>
