<svg width="16" height="16" viewBox="0 0 16 16" fill="none" xmlns="http://www.w3.org/2000/svg">
<g clip-path="url(#clip0_612_7415)">
<path d="M9.99854 4.66665C9.99046 3.21663 9.92616 2.43136 9.41391 1.9191C8.82812 1.33331 7.88531 1.33331 5.99969 1.33331L5.33303 1.33331C3.44741 1.33331 2.5046 1.33331 1.91881 1.9191C1.33303 2.50489 1.33303 3.44769 1.33303 5.33331L1.33303 10.6666C1.33303 12.5523 1.33303 13.4951 1.91881 14.0809C2.5046 14.6666 3.44741 14.6666 5.33303 14.6666L5.99969 14.6666C7.88531 14.6666 8.82812 14.6666 9.41391 14.0809C9.92616 13.5686 9.99046 12.7833 9.99854 11.3333" stroke="#ECEDEE" stroke-width="1.5" stroke-linecap="round"/>
<path d="M6 8L14.6667 8M14.6667 8L12.3333 6M14.6667 8L12.3333 10" stroke="#ECEDEE" stroke-width="1.5" stroke-linecap="round" stroke-linejoin="round"/>
</g>
<defs>
<clipPath id="clip0_612_7415">
<rect width="16" height="16" rx="5" fill="white"/>
</clipPath>
</defs>
</svg>
