<svg width="16" height="16" viewBox="0 0 16 16" fill="none" xmlns="http://www.w3.org/2000/svg">
<rect width="16" height="16" rx="8" fill="#7B3FE4"/>
<path fill-rule="evenodd" clip-rule="evenodd" d="M5.8669 3.61155C5.70181 3.51616 5.49836 3.51616 5.33327 3.61155L2.93327 4.99821C2.76834 5.09351 2.66675 5.26953 2.66675 5.46001V8.23334C2.66675 8.42382 2.76834 8.59984 2.93327 8.69514L5.33327 10.0818C5.49836 10.1772 5.70181 10.1772 5.8669 10.0818L8.2639 8.69687C8.2649 8.6963 8.2659 8.69573 8.2669 8.69515L10.4001 7.46264L12.2667 8.54116V10.6989L10.4001 11.7774L8.53341 10.6989V10.1C8.53341 9.80547 8.29463 9.56669 8.00008 9.56669C7.70553 9.56669 7.46675 9.80547 7.46675 10.1V11.0067C7.46675 11.1972 7.56834 11.3732 7.73327 11.4685L10.1333 12.8551C10.2984 12.9505 10.5018 12.9505 10.6669 12.8551L13.0669 11.4685C13.2318 11.3732 13.3334 11.1972 13.3334 11.0067V8.23335C13.3334 8.04287 13.2318 7.86685 13.0669 7.77156L10.6669 6.38489C10.5018 6.28951 10.2984 6.28951 10.1333 6.38489L7.73618 7.76988C7.7352 7.77043 7.73423 7.77099 7.73327 7.77155L5.60008 9.00405L3.73341 7.92554V5.76781L5.60008 4.6893L7.46675 5.76781V6.31334C7.46675 6.60789 7.70553 6.84667 8.00008 6.84667C8.29463 6.84667 8.53341 6.60789 8.53341 6.31334V5.46001C8.53341 5.26953 8.43183 5.09351 8.2669 4.99821L5.8669 3.61155Z" fill="white"/>
</svg>
