<svg width="44" height="43" viewBox="0 0 44 43" fill="none" xmlns="http://www.w3.org/2000/svg">
<path d="M23.5 15.5C23.5 14.6716 22.8284 14 22 14C21.1716 14 20.5 14.6716 20.5 15.5L20.5 20H16C15.1716 20 14.5 20.6716 14.5 21.5C14.5 22.3285 15.1716 23 16 23H20.5V27.5C20.5 28.3284 21.1716 29 22 29C22.8284 29 23.5 28.3284 23.5 27.5L23.5 23H28C28.8284 23 29.5 22.3285 29.5 21.5C29.5 20.6716 28.8284 20 28 20H23.5V15.5Z" fill="#FFD34E"/>
<path fill-rule="evenodd" clip-rule="evenodd" d="M22 0C10.1259 0 0.5 9.62588 0.5 21.5C0.5 33.3741 10.1259 43 22 43C33.8741 43 43.5 33.3741 43.5 21.5C43.5 9.62588 33.8741 0 22 0ZM3.5 21.5C3.5 11.2827 11.7827 3 22 3C32.2173 3 40.5 11.2827 40.5 21.5C40.5 31.7173 32.2173 40 22 40C11.7827 40 3.5 31.7173 3.5 21.5Z" fill="#FFD34E"/>
</svg>
