<svg width="99" height="48" viewBox="0 0 99 48" fill="none" xmlns="http://www.w3.org/2000/svg">
<path fill-rule="evenodd" clip-rule="evenodd" d="M46.9332 11.7334L41.0003 24.2488L29.601 24.2488L25.9313 31.9899L24 35.9523L22.0686 31.9899L18.3989 24.2488L6.99956 24.2488L1.06665 11.7334L17.0947 11.7333L16.578 12.2594L24 27.9159L31.4052 12.2594L30.9052 11.7333L46.9332 11.7334ZM31.2561 20.7573L38.7929 20.7573L41.4155 15.2249L33.8787 15.2248L31.2561 20.7573ZM16.7438 20.7573L9.20702 20.7573L6.58439 15.2249L14.1212 15.2248L16.7438 20.7573ZM24.1394 24.1918L18.1179 11.7483H22.2885L22.1146 11.9919L24.0521 15.9958L25.8886 11.985L25.7287 11.7483H29.837L24.1394 24.1918Z" fill="url(#paint0_linear_557_11290)"/>
<path fill-rule="evenodd" clip-rule="evenodd" d="M67.6991 11.5955L71.5737 24.7882H75.5919L79.6649 11.5955H76.0198L73.6183 19.7842L71.3336 11.5955H67.6991Z" fill="white"/>
<path fill-rule="evenodd" clip-rule="evenodd" d="M62.3507 11.609H49.8876V24.809H53.2658V20.8194H62.3686C63.7782 20.8194 64.9341 20.459 65.8019 19.7057L65.8028 19.7049L65.8038 19.704C66.6758 18.934 67.1041 17.8966 67.1041 16.6263V15.8021C67.1041 14.5312 66.6692 13.4987 65.7841 12.7407C64.9167 11.9756 63.7607 11.609 62.3507 11.609ZM63.4203 14.9936L63.4228 14.9958L63.4254 14.9979C63.6238 15.1623 63.7259 15.3778 63.7259 15.6767V16.7517C63.7259 17.0506 63.6238 17.2661 63.4254 17.4305C63.2195 17.6011 62.931 17.701 62.5294 17.701H53.2658V14.7274H62.5472C62.9496 14.7274 63.2287 14.8276 63.4203 14.9936Z" fill="white"/>
<path fill-rule="evenodd" clip-rule="evenodd" d="M93.262 11.609H80.7989V24.809H84.1771V20.8194H93.2799C94.6895 20.8194 95.8454 20.459 96.7131 19.7057L96.7141 19.7049L96.7151 19.704C97.5871 18.934 98.0153 17.8966 98.0153 16.6263V15.8021C98.0153 14.5312 97.5805 13.4987 96.6954 12.7407C95.8279 11.9756 94.6719 11.609 93.262 11.609ZM94.3316 14.9936L94.3341 14.9958L94.3367 14.9979C94.5351 15.1623 94.6372 15.3778 94.6372 15.6767V16.7517C94.6372 17.0506 94.5351 17.2661 94.3367 17.4305C94.1308 17.6011 93.8423 17.701 93.4407 17.701H84.1771V14.7274H93.4585C93.8609 14.7274 94.1399 14.8276 94.3316 14.9936Z" fill="white"/>
<path d="M53.2733 36.1349C52.5997 36.1349 52.0048 35.9935 51.4886 35.7107C50.9812 35.428 50.5875 35.0296 50.3076 34.5155C50.0276 33.9928 49.8876 33.393 49.8876 32.7162V30.3513C49.8876 29.6744 50.0276 29.079 50.3076 28.5649C50.5963 28.0422 50.9987 27.6395 51.5149 27.3567C52.0398 27.074 52.6434 26.9326 53.3258 26.9326H54.7169C55.373 26.9326 55.9504 27.0697 56.4491 27.3439C56.9477 27.6181 57.3327 28.0036 57.6039 28.5006C57.8838 28.989 58.0228 29.5848 58.0228 30.236H56.2451C56.2451 29.7219 56.0991 29.2846 55.8192 28.9761C55.5392 28.6591 55.1718 28.5006 54.7169 28.5006H53.3258C52.8359 28.5006 52.4422 28.6805 52.1448 29.0404C51.8473 29.3917 51.6986 29.8544 51.6986 30.4284V32.639C51.6986 33.2131 51.8429 33.6801 52.1316 34.0399C52.4204 34.3912 52.8009 34.5669 53.2733 34.5669H54.6906C55.1543 34.5669 55.5305 34.3912 55.8192 34.0399C56.1166 33.6886 56.2451 33.1696 56.2451 32.5955H58.0582C58.0582 33.2896 57.9101 33.9585 57.6301 34.4898C57.3502 35.0124 56.9565 35.4194 56.4491 35.7107C55.9417 35.9935 55.3555 36.1349 54.6906 36.1349H53.2733Z" fill="white"/>
<path d="M64.4863 34.0113H60.9543L60.1884 36.032H58.2987L61.8944 27.0354H63.5648C63.6314 27.2154 63.6616 27.2925 63.8628 27.8066L67.1304 36.032H65.2407L64.4863 34.0113ZM61.4253 32.5955H64.0153L62.7342 29.2075H62.7211L61.4253 32.5955Z" fill="white"/>
<path d="M70.6484 36.1349C69.6861 36.1349 68.9337 35.8735 68.3913 35.3509C67.8576 34.8282 67.5865 34.1063 67.5779 33.1854C67.5778 33.1704 67.5777 32.6106 67.5777 32.5955H69.3624C69.3624 32.6107 69.3625 33.1705 69.3628 33.1854C69.3703 33.6096 69.4839 33.9459 69.7036 34.1942C69.9398 34.4426 70.2635 34.5669 70.6747 34.5669H72.1313C72.5163 34.5669 72.8268 34.4898 73.0631 34.3355C73.308 34.1727 73.4305 33.9585 73.4305 33.6929V33.2559C73.4305 32.8361 73.1155 32.5748 72.4857 32.472L70.071 32.0735C69.2837 31.945 68.6844 31.7008 68.2732 31.341C67.8708 30.9725 67.6696 30.5056 67.6696 29.9401V29.2203C67.6696 28.7662 67.792 28.3678 68.037 28.0251C68.2907 27.6738 68.645 27.4039 69.0999 27.2154C69.5636 27.0269 70.0973 26.9326 70.7009 26.9326H72.1838C72.7525 26.9326 73.2555 27.0483 73.693 27.2796C74.1304 27.511 74.4672 27.8366 74.7034 28.2564C74.9409 28.6552 75.0633 29.1184 75.0705 29.6461C75.0707 29.6626 75.0709 30.2193 75.0709 30.236H73.2855C73.2855 30.2192 73.2859 29.6625 73.2855 29.6461C73.2766 29.3094 73.1762 29.039 72.9843 28.8348C72.7831 28.612 72.5163 28.5006 72.1838 28.5006H70.7009C70.3335 28.5006 70.036 28.5777 69.8086 28.7319C69.5899 28.8862 69.4805 29.0918 69.4805 29.3488V29.6959C69.4805 30.1243 69.7823 30.3899 70.386 30.4927L72.7875 30.904C73.5836 31.0411 74.1916 31.2853 74.6116 31.6366C75.0315 31.9793 75.2415 32.4248 75.2415 32.9732V33.8215C75.2415 34.2756 75.1102 34.6783 74.8478 35.0296C74.5941 35.3809 74.2354 35.655 73.7717 35.8521C73.308 36.0406 72.77 36.1349 72.1576 36.1349H70.6484Z" fill="white"/>
<path d="M76.767 27.0354H78.578V36.032H76.767V27.0354Z" fill="white"/>
<path d="M80.4706 27.0354H82.0847L86.494 33.0674L86.494 27.0354H88.2656V36.032H86.6515L82.2422 29.9144V36.032H80.4706V27.0354Z" fill="white"/>
<path d="M93.2625 36.1349C92.5713 36.1349 91.9589 35.9935 91.4253 35.7107C90.9003 35.4194 90.4892 35.0167 90.1917 34.5026C89.903 33.98 89.7586 33.3759 89.7586 32.6904V30.377C89.7586 29.6916 89.903 29.0918 90.1917 28.5777C90.4892 28.0551 90.9003 27.6523 91.4253 27.3696C91.9589 27.0783 92.5713 26.9326 93.2625 26.9326H94.6535C95.3446 26.9326 95.9527 27.0783 96.4776 27.3696C97.0112 27.6523 97.4224 28.0551 97.7111 28.5777C98.0086 29.0918 98.1573 29.6916 98.1573 30.377V32.6904C98.1573 33.3759 98.0086 33.98 97.7111 34.5026C97.4224 35.0167 97.0112 35.4194 96.4776 35.7107C95.9527 35.9935 95.3446 36.1349 94.6535 36.1349H93.2625ZM94.6535 34.5669C95.1609 34.5669 95.5677 34.387 95.8739 34.0271C96.1889 33.6672 96.3463 33.196 96.3463 32.6133V30.4541C96.3463 29.8715 96.1889 29.4003 95.8739 29.0404C95.5677 28.6805 95.1609 28.5006 94.6535 28.5006H93.2625C92.755 28.5006 92.3439 28.6805 92.0289 29.0404C91.7227 29.4003 91.5696 29.8715 91.5696 30.4541V32.6133C91.5696 33.196 91.7227 33.6672 92.0289 34.0271C92.3439 34.387 92.755 34.5669 93.2625 34.5669H94.6535Z" fill="white"/>
<defs>
<linearGradient id="paint0_linear_557_11290" x1="9.81982" y1="14.2292" x2="23.196" y2="41.0358" gradientUnits="userSpaceOnUse">
<stop stop-color="#FFDB5B"/>
<stop offset="1" stop-color="#FFB526"/>
</linearGradient>
</defs>
</svg>
