<svg width="24" height="24" viewBox="0 0 24 24" fill="none" xmlns="http://www.w3.org/2000/svg">
<path d="M20 12.2V13.9C20 17.05 18.2 18.4 15.5 18.4H6.5C3.8 18.4 2 17.05 2 13.9V8.5C2 5.35 3.8 4 6.5 4H9.2" stroke="#696869" stroke-width="1.5"/>
<path d="M22 5.25V9.15002C22 10.64 21.24 11.76 20 12.2C19.62 12.33 19.2 12.4 18.75 12.4H16.7564C16.4554 12.4 16.3049 12.4 16.163 12.443C16.0212 12.4861 15.896 12.5696 15.6457 12.7368L13.26 14.33C12.83 14.61 12.25 14.3 12.25 13.79V13.79C12.25 13.4336 12.25 13.2553 12.2229 13.1412C12.1476 12.8244 12.088 12.7371 11.8206 12.5513C11.7243 12.4844 11.446 12.3753 10.8895 12.157C10.5047 12.0061 10.1677 11.7877 9.89 11.51C9.32 10.94 9 10.12 9 9.15002V5.25C9 4.8 9.07 4.38 9.2 4C9.64 2.76 10.76 2 12.25 2H18.75C20.7 2 22 3.3 22 5.25Z" stroke="#696869" stroke-width="1.5"/>
<path d="M7.3999 22H14.5999" stroke="#696869" stroke-width="1.5" stroke-linecap="round"/>
<path d="M11 18.4V22" stroke="#696869" stroke-width="1.5"/>
<path opacity="0.5" d="M18.4955 7.25H18.5045" stroke="#696869" stroke-width="1.5" stroke-linecap="round"/>
<path opacity="0.5" d="M15.6957 7.25H15.7047" stroke="#696869" stroke-width="1.5" stroke-linecap="round"/>
<path opacity="0.5" d="M12.8954 7.25H12.9044" stroke="#696869" stroke-width="1.5" stroke-linecap="round"/>
</svg>
