<svg width="20" height="20" viewBox="0 0 20 20" fill="none" xmlns="http://www.w3.org/2000/svg">
<g clip-path="url(#clip0_570_7690)">
<path d="M15 6.66669C15 9.42811 12.7614 11.6667 10 11.6667C7.23858 11.6667 5 9.42811 5 6.66669C5 3.90526 7.23858 1.66669 10 1.66669C12.7614 1.66669 15 3.90526 15 6.66669Z" stroke="#787F85" stroke-width="1.5" stroke-linecap="round"/>
<path opacity="0.5" d="M5.41675 8.49084C3.26021 9.0459 1.66675 11.0035 1.66675 13.3333C1.66675 16.0947 3.90532 18.3333 6.66675 18.3333C9.42817 18.3333 11.6667 16.0947 11.6667 13.3333C11.6667 12.7044 11.5506 12.1026 11.3387 11.5482" stroke="#787F85" stroke-width="1.5" stroke-linecap="round"/>
<path opacity="0.5" d="M10 17.0602C10.8846 17.8519 12.0527 18.3333 13.3333 18.3333C16.0948 18.3333 18.3333 16.0947 18.3333 13.3333C18.3333 11.0035 16.7399 9.0459 14.5833 8.49084" stroke="#787F85" stroke-width="1.5" stroke-linecap="round"/>
</g>
<defs>
<clipPath id="clip0_570_7690">
<rect width="20" height="20" rx="5" fill="white"/>
</clipPath>
</defs>
</svg>
