<svg width="16" height="20" viewBox="0 0 16 20" fill="none" xmlns="http://www.w3.org/2000/svg">
<path d="M7.90671 0.857178L3.05202 3.65802L4.83686 4.69274L7.90671 2.92659L10.9766 4.69274L12.7614 3.65802L7.90671 0.857178ZM10.9766 6.1556L12.7614 7.1903V9.2597L9.69147 11.0258V14.5581L7.90671 15.5929L6.12191 14.5581V11.0258L3.05202 9.2597V7.1903L4.83686 6.1556L7.90671 7.92169L10.9766 6.1556ZM12.7614 10.7226V12.792L10.9766 13.8267V11.7572L12.7614 10.7226ZM10.9587 15.2895L14.0286 13.5234V9.99109L15.8134 8.95643V14.5581L10.9587 17.3589V15.2895ZM14.0286 6.45887L12.2438 5.42417L14.0286 4.38945L15.8134 5.42417V7.49357L14.0286 8.52831V6.45887ZM6.12191 18.1082V16.0388L7.90671 17.0735L9.69147 16.0388V18.1082L7.90671 19.1429L6.12191 18.1082ZM4.83686 13.8267L3.05202 12.792V10.7226L4.83686 11.7572V13.8267ZM7.90671 6.45887L6.12191 5.42417L7.90671 4.38945L9.69147 5.42417L7.90671 6.45887ZM3.56962 5.42417L1.7848 6.45887V8.52831L0 7.49357V5.42417L1.7848 4.38945L3.56962 5.42417ZM0 8.95643L1.7848 9.99109V13.5234L4.85466 15.2895V17.3589L0 14.5581V8.95643Z" fill="#F0B90B"/>
</svg>
