<svg width="24" height="24" viewBox="0 0 24 24" fill="none" xmlns="http://www.w3.org/2000/svg">
<circle cx="12" cy="12" r="12" fill="#7F39ED"/>
<g clip-path="url(#clip0_427_14973)">
<path d="M7.61111 15.1507C7.69059 15.0571 7.79836 15.0046 7.91072 15.0046H18.278C18.4668 15.0046 18.5614 15.2735 18.4278 15.4307L16.3792 17.841C16.2997 17.9345 16.192 17.9871 16.0796 17.9871H5.71237C5.52351 17.9871 5.42896 17.7181 5.56256 17.5609L7.61111 15.1507Z" fill="white"/>
<path d="M7.61111 6.14605C7.69059 6.05253 7.79836 6 7.91072 6H18.278C18.4668 6 18.5614 6.26891 18.4278 6.4261L16.3792 8.83638C16.2997 8.9299 16.192 8.98243 16.0796 8.98243H5.71237C5.52351 8.98243 5.42896 8.71352 5.56256 8.55633L7.61111 6.14605Z" fill="white"/>
<path d="M16.3792 10.6197C16.2997 10.5261 16.192 10.4736 16.0796 10.4736H5.71237C5.52351 10.4736 5.42896 10.7425 5.56256 10.8997L7.61111 13.31C7.69059 13.4035 7.79836 13.4561 7.91072 13.4561H18.278C18.4668 13.4561 18.5614 13.1871 18.4278 13.0299L16.3792 10.6197Z" fill="white"/>
</g>
<defs>
<clipPath id="clip0_427_14973">
<rect width="13" height="12" fill="white" transform="translate(5.5 6)"/>
</clipPath>
</defs>
</svg>
