<svg width="24" height="21" viewBox="0 0 24 21" fill="none" xmlns="http://www.w3.org/2000/svg">
<path d="M15.7151 20.1325L18.4196 15.2169C17.8174 15.2776 17.2347 15.3083 16.7083 15.3114C16.4437 15.312 16.2216 15.1228 16.1606 14.8668C16.1819 14.8695 16.2073 14.8714 16.2297 14.8714C19.0768 14.8542 23.3422 14.0127 23.9021 12.2127C24.2362 11.149 23.7139 10.3193 22.3577 9.74371C22.3514 9.7435 22.349 9.74185 22.3441 9.73896C22.1264 9.64798 21.8795 9.7588 21.7932 9.98706C21.7646 10.0623 21.7566 10.1427 21.7672 10.2176L21.7666 10.2242C21.7922 10.3733 21.886 10.5052 22.0296 10.5647C22.9932 10.9706 23.1642 11.3719 23.1512 11.6618C23.1479 11.7691 23.1199 11.8619 23.0966 11.9333C22.8783 12.6317 21.2719 13.314 19.2598 13.6888L21.8296 9.01803C22.2857 8.18895 22.0148 7.12788 21.2244 6.64924L10.6338 0.232636C9.84301 -0.246416 8.83232 0.0382851 8.37622 0.867151L2.89836 10.8242C1.50623 10.3844 0.852577 9.8179 0.847231 9.31962C0.847428 9.29564 0.849004 9.26897 0.852945 9.24436C0.920519 8.65902 1.88355 7.88038 3.93091 7.39576C4.00124 7.38025 4.06271 7.34572 4.11256 7.29713C4.22722 7.19541 4.28593 7.02918 4.25007 6.86357C4.19905 6.62415 3.97248 6.47301 3.74259 6.52884C2.48325 6.82636 1.50565 7.25121 0.867934 7.76463C0.866161 7.7669 0.866161 7.7669 0.862614 7.76814C0.574181 8.00115 0.35669 8.24884 0.211082 8.51328C0.0684434 8.77255 -0.00268157 9.04442 7.72779e-05 9.32998C0.0111102 10.8395 2.19011 11.9235 5.9707 12.3077C5.99611 12.3091 6.01877 12.3095 6.043 12.3068C5.98232 12.5715 5.74019 12.7567 5.47479 12.7292C4.17056 12.5971 3.08084 12.384 2.20472 12.0984C1.83295 12.9085 2.11271 13.8941 2.86669 14.3508L13.4573 20.7674C14.2481 21.2463 15.2586 20.962 15.7151 20.1323L15.7151 20.1325ZM8.85532 4.87614C8.61299 3.92712 9.14965 2.95249 10.0538 2.69779C10.9581 2.44328 11.8868 3.00627 12.1291 3.95549C12.3713 4.90409 11.8356 5.87915 10.9311 6.13385C10.0271 6.38795 9.09761 5.82496 8.85532 4.87614ZM11.9623 17.044C11.7199 16.095 12.2568 15.1202 13.1607 14.8657C14.0651 14.6114 14.9938 15.1742 15.2361 16.1234C15.4784 17.0722 14.9423 18.0473 14.038 18.3017C13.1337 18.5558 12.2046 17.9926 11.9623 17.044Z" fill="url(#paint0_linear_625_1919)"/>
<defs>
<linearGradient id="paint0_linear_625_1919" x1="4.58015" y1="2.16412" x2="18.8373" y2="19.4064" gradientUnits="userSpaceOnUse">
<stop stop-color="#FFDB5B"/>
<stop offset="1" stop-color="#FFB526"/>
</linearGradient>
</defs>
</svg>
